<svg viewBox="0 0 330 200" xmlns="http://www.w3.org/2000/svg"><g><g><g><g><g><line x1="50" y1="178" x2="45" y2="178" style="visibility: inherit;" fill="rgb(0, 0, 0)" stroke="rgb(204, 204, 204)" stroke-width="1px"></line><line x1="50" y1="155.75" x2="45" y2="155.75" style="visibility: inherit;" fill="rgb(0, 0, 0)" stroke="rgb(204, 204, 204)" stroke-width="1px"></line><line x1="50" y1="133.5" x2="45" y2="133.5" style="visibility: inherit;" fill="rgb(0, 0, 0)" stroke="rgb(204, 204, 204)" stroke-width="1px"></line><line x1="50" y1="111.25" x2="45" y2="111.25" style="visibility: inherit;" fill="rgb(0, 0, 0)" stroke="rgb(204, 204, 204)" stroke-width="1px"></line><line x1="50" y1="89" x2="45" y2="89" style="visibility: inherit;" fill="rgb(0, 0, 0)" stroke="rgb(204, 204, 204)" stroke-width="1px"></line><line x1="50" y1="66.75" x2="45" y2="66.75" style="visibility: inherit;" fill="rgb(0, 0, 0)" stroke="rgb(204, 204, 204)" stroke-width="1px"></line><line x1="50" y1="44.5" x2="45" y2="44.5" style="visibility: inherit;" fill="rgb(0, 0, 0)" stroke="rgb(204, 204, 204)" stroke-width="1px"></line><line x1="50" y1="22.25" x2="45" y2="22.25" style="visibility: inherit;" fill="rgb(0, 0, 0)" stroke="rgb(204, 204, 204)" stroke-width="1px"></line><line x1="50" y1="0" x2="45" y2="0" style="visibility: inherit;" fill="rgb(0, 0, 0)" stroke="rgb(204, 204, 204)" stroke-width="1px"></line></g><g transform="translate(40, 0)"><text x="0" y="178" dx="0em" dy="0.3em" style="text-anchor: end; visibility: hidden; font-family: &quot;Helvetica Neue&quot;, sans-serif; font-size: 12px; font-weight: 200;" fill="rgb(50, 49, 63)" stroke="none" stroke-width="1px">-0.5</text><text x="0" y="155.75" dx="0em" dy="0.3em" style="text-anchor: end; visibility: inherit; font-family: &quot;Helvetica Neue&quot;, sans-serif; font-size: 12px; font-weight: 200;" fill="rgb(50, 49, 63)" stroke="none" stroke-width="1px">0</text><text x="0" y="133.5" dx="0em" dy="0.3em" style="text-anchor: end; visibility: hidden; font-family: &quot;Helvetica Neue&quot;, sans-serif; font-size: 12px; font-weight: 200;" fill="rgb(50, 49, 63)" stroke="none" stroke-width="1px">0.5</text><text x="0" y="111.25" dx="0em" dy="0.3em" style="text-anchor: end; visibility: inherit; font-family: &quot;Helvetica Neue&quot;, sans-serif; font-size: 12px; font-weight: 200;" fill="rgb(50, 49, 63)" stroke="none" stroke-width="1px">1</text><text x="0" y="89" dx="0em" dy="0.3em" style="text-anchor: end; visibility: hidden; font-family: &quot;Helvetica Neue&quot;, sans-serif; font-size: 12px; font-weight: 200;" fill="rgb(50, 49, 63)" stroke="none" stroke-width="1px">1.5</text><text x="0" y="66.75" dx="0em" dy="0.3em" style="text-anchor: end; visibility: inherit; font-family: &quot;Helvetica Neue&quot;, sans-serif; font-size: 12px; font-weight: 200;" fill="rgb(50, 49, 63)" stroke="none" stroke-width="1px">2</text><text x="0" y="44.5" dx="0em" dy="0.3em" style="text-anchor: end; visibility: hidden; font-family: &quot;Helvetica Neue&quot;, sans-serif; font-size: 12px; font-weight: 200;" fill="rgb(50, 49, 63)" stroke="none" stroke-width="1px">2.5</text><text x="0" y="22.25" dx="0em" dy="0.3em" style="text-anchor: end; visibility: inherit; font-family: &quot;Helvetica Neue&quot;, sans-serif; font-size: 12px; font-weight: 200;" fill="rgb(50, 49, 63)" stroke="none" stroke-width="1px">3</text><text x="0" y="0" dx="0em" dy="0.3em" style="text-anchor: end; visibility: hidden; font-family: &quot;Helvetica Neue&quot;, sans-serif; font-size: 12px; font-weight: 200;" fill="rgb(50, 49, 63)" stroke="none" stroke-width="1px">3.5</text></g><line x1="50" y1="0" x2="50" y2="178" fill="rgb(0, 0, 0)" stroke="rgb(204, 204, 204)" stroke-width="1px"></line></g></g><g transform="translate(50, 0)" clip-path="url(#clip_0)"><clipPath id="clip_0"><rect width="280" height="178"></rect></clipPath><g><g><g><line x1="0" y1="0" x2="0" y2="178" fill="rgb(0, 0, 0)" stroke="rgb(60, 60, 60)" stroke-width="1px" opacity="0.25"></line><line x1="20" y1="0" x2="20" y2="178" fill="rgb(0, 0, 0)" stroke="rgb(60, 60, 60)" stroke-width="1px" opacity="0.25"></line><line x1="40" y1="0" x2="40" y2="178" fill="rgb(0, 0, 0)" stroke="rgb(60, 60, 60)" stroke-width="1px" opacity="0.25"></line><line x1="60" y1="0" x2="60" y2="178" fill="rgb(0, 0, 0)" stroke="rgb(60, 60, 60)" stroke-width="1px" opacity="0.25"></line><line x1="80" y1="0" x2="80" y2="178" fill="rgb(0, 0, 0)" stroke="rgb(60, 60, 60)" stroke-width="1px" opacity="0.25"></line><line x1="100" y1="0" x2="100" y2="178" fill="rgb(0, 0, 0)" stroke="rgb(60, 60, 60)" stroke-width="1px" opacity="0.25"></line><line x1="120" y1="0" x2="120" y2="178" fill="rgb(0, 0, 0)" stroke="rgb(60, 60, 60)" stroke-width="1px" opacity="0.25"></line><line x1="140" y1="0" x2="140" y2="178" fill="rgb(0, 0, 0)" stroke="rgb(60, 60, 60)" stroke-width="1px" opacity="0.25"></line><line x1="160" y1="0" x2="160" y2="178" fill="rgb(0, 0, 0)" stroke="rgb(60, 60, 60)" stroke-width="1px" opacity="0.25"></line><line x1="180" y1="0" x2="180" y2="178" fill="rgb(0, 0, 0)" stroke="rgb(60, 60, 60)" stroke-width="1px" opacity="0.25"></line><line x1="200" y1="0" x2="200" y2="178" fill="rgb(0, 0, 0)" stroke="rgb(60, 60, 60)" stroke-width="1px" opacity="0.25"></line><line x1="220" y1="0" x2="220" y2="178" fill="rgb(0, 0, 0)" stroke="rgb(60, 60, 60)" stroke-width="1px" opacity="0.25"></line><line x1="240" y1="0" x2="240" y2="178" fill="rgb(0, 0, 0)" stroke="rgb(60, 60, 60)" stroke-width="1px" opacity="0.25"></line><line x1="260" y1="0" x2="260" y2="178" fill="rgb(0, 0, 0)" stroke="rgb(60, 60, 60)" stroke-width="1px" opacity="0.25"></line><line x1="280" y1="0" x2="280" y2="178" fill="rgb(0, 0, 0)" stroke="rgb(60, 60, 60)" stroke-width="1px" opacity="0.25"></line></g><g><line x1="0" y1="178" x2="280" y2="178" fill="rgb(0, 0, 0)" stroke="rgb(60, 60, 60)" stroke-width="1px" opacity="0.25"></line><line x1="0" y1="155.75" x2="280" y2="155.75" fill="rgb(0, 0, 0)" stroke="rgb(60, 60, 60)" stroke-width="1px" opacity="0.25"></line><line x1="0" y1="133.5" x2="280" y2="133.5" fill="rgb(0, 0, 0)" stroke="rgb(60, 60, 60)" stroke-width="1px" opacity="0.25"></line><line x1="0" y1="111.25" x2="280" y2="111.25" fill="rgb(0, 0, 0)" stroke="rgb(60, 60, 60)" stroke-width="1px" opacity="0.25"></line><line x1="0" y1="89" x2="280" y2="89" fill="rgb(0, 0, 0)" stroke="rgb(60, 60, 60)" stroke-width="1px" opacity="0.25"></line><line x1="0" y1="66.75" x2="280" y2="66.75" fill="rgb(0, 0, 0)" stroke="rgb(60, 60, 60)" stroke-width="1px" opacity="0.25"></line><line x1="0" y1="44.5" x2="280" y2="44.5" fill="rgb(0, 0, 0)" stroke="rgb(60, 60, 60)" stroke-width="1px" opacity="0.25"></line><line x1="0" y1="22.25" x2="280" y2="22.25" fill="rgb(0, 0, 0)" stroke="rgb(60, 60, 60)" stroke-width="1px" opacity="0.25"></line><line x1="0" y1="0" x2="280" y2="0" fill="rgb(0, 0, 0)" stroke="rgb(60, 60, 60)" stroke-width="1px" opacity="0.25"></line></g></g></g><g><g><line x1="0" y1="155.75" x2="280" y2="155.75" fill="rgb(0, 0, 0)" stroke="rgb(153, 153, 153)" stroke-width="1.5px"></line></g></g><g><g><line x1="20" y1="0" x2="20" y2="178" fill="rgb(0, 0, 0)" stroke="rgb(153, 153, 153)" stroke-width="1.5px"></line></g></g><g><g><g><g><g><path stroke="rgb(255, 112, 67)" stroke-width="2px" d="M27.2,-1.0702231199501284L27.6,1.51684389001025L28,4.067131784435219L28.4,5.981636095219727L28.8,7.912849533951203L29.2,9.469752896470311L29.6,11.068043112923135L30,12.511102283115719L30.4,13.70863061175686L30.8,15.102999478408691L31.200000000000003,16.45118128035378L31.599999999999998,17.819281339834106L32,19.11115615994194L32.4,20.543636613467328L32.800000000000004,21.871914407884873L33.2,22.72378405524202L33.6,23.539686243040904L34,24.54189090038838L34.4,25.225269792732576L34.800000000000004,26.163133932201333L35.2,27.189108951655527L35.6,27.89874603325822L36,28.66317099051713L36.4,29.30668017130347L36.8,30.290239078641434L37.2,30.889760535675123L37.6,31.312514395063545L38,32.082069669091595L38.4,32.737081360661165L38.8,33.413871906892325L39.2,34.00298336071475L39.6,34.27783874602389L40,34.946274045844206L40.400000000000006,35.73357285045512L40.8,35.74939594422588L41.199999999999996,36.20152032316068L41.6,37.01745964407408L42,37.31300861690323L42.400000000000006,37.538607953316244L42.8,37.996769631299344L43.199999999999996,38.511280783680576L43.6,38.83214403246825L44,39.09520201465591L44.4,38.94415864879841L44.800000000000004,39.49875381511464L45.199999999999996,39.64440774012604L45.6,40.22215172287417L46,40.21399959615499L46.4,40.783614042612925L46.800000000000004,41.04534718873285L47.199999999999996,41.34187548950993L47.6,41.421378585793605L48,42.02495462206102L48.4,42.346042376269054L48.800000000000004,42.66499165507355L49.2,42.82529447688367L49.599999999999994,42.91313819402953L50,43.026346847050235L50.4,43.135295642968856L50.800000000000004,43.36465933448008L51.2,43.507003715784265L51.599999999999994,43.43103324853385L52,43.614191937018234L52.4,43.74160032225089L52.800000000000004,43.84984136299059L53.2,43.89899855549703L53.599999999999994,44.32164537206677L54,44.7802808032483L54.4,44.78899607550946L54.8,45.02706139480182L55.2,45.38913896849297L55.6,45.98973899534616L56,46.33644039284388L56.4,45.94772795391799L56.8,46.11829858991388L57.2,46.51931014421217L57.6,46.78783439333995L58.00000000000001,46.787056511274415L58.4,46.78633935199383L58.8,46.8914455373158L59.2,47.27345333094934L59.6,47.299162938371154L60,47.24929399300578L60.4,47.184924046652924L60.8,47.406059182508216L61.2,47.26049169897723L61.6,47.691825102896814L62,48.140077597272466L62.400000000000006,48.02001371715909L62.8,48.212765794983966L63.199999999999996,48.47783425723955L63.6,48.924515889407786L64,49.09267778905988L64.4,48.98566233390949L64.8,49.080089268249026L65.2,49.49816411557791L65.60000000000001,49.672142960311305L66,49.736004215115884L66.4,50.02015308256988L66.8,49.74884778775876L67.2,50.00900492288328L67.60000000000001,50.00981028150855L68,49.96458070804127L68.39999999999999,50.37800375001511L68.8,50.382206662186576L69.2,50.363095519390384L69.60000000000001,50.74083151703063L70,51.14886480700123L70.4,51.097534878472885L70.8,51.18352567284121L71.2,51.19844917078859L71.60000000000001,51.60755977347519L72,51.48367483649366L72.39999999999999,51.85674431022474L72.8,52.0765920342122L73.2,52.23332047590549L73.6,52.653647837083724L74,52.95384414621347L74.4,52.9639951870691L74.8,53.51120939387127L75.2,53.45949779530602L75.60000000000001,52.98429462671844L76,53.40120687374484L76.4,53.546553915281436L76.8,53.648384066335225L77.19999999999999,53.815823836419256L77.6,53.924233117206896L78,54.033380504658865L78.4,54.1524017532566L78.8,54.5793331197475L79.2,54.35236718042714L79.60000000000001,54.69014850556549L80,54.721165684561285L80.4,54.94743482293033L80.80000000000001,55.11927831156784L81.19999999999999,55.328285588892456L81.6,55.378482950425806L82,55.48452584001922L82.39999999999999,55.398417475815805L82.8,55.576457510428796L83.2,55.694639785663085L83.60000000000001,55.82658907791868L84,55.916067724157074L84.4,56.43068429784067L84.80000000000001,56.440864031121635L85.19999999999999,56.57436851136664L85.19999999999999,56.48140064082209L85.6,56.80481691304017L86,57.13978222956759L86.39999999999999,57.19578571148091L86.8,56.87506480946418L87.2,57.45278889914162L87.6,57.01088834939348L88,57.527450565973496L88.4,57.57620111562018L88.8,57.53380602194065L89.2,57.605046081284954L89.60000000000001,57.52362552679742L90,57.89906067590293L90.39999999999999,57.665991300607175L90.8,57.73151793732609L91.2,57.72297861049542L91.6,57.84382101496078L92,57.92765542277948L92.4,58.3589192077214L92.8,58.50371013794165L93.2,59.07392099856071L93.60000000000001,59.10777720931476L93.99999999999999,59.34585723734804L94.39999999999999,59.36769650763206L94.8,59.73260663946981L95.2,59.59096676787736L95.6,59.60747862824664L96,60.146759182185946L96.4,59.968218367417506L96.8,60.46557006644471L97.2,60.54717553252706L97.60000000000001,60.90283225088518L98,61.033077256187894L98.4,61.41519144134536L98.8,61.36756271015385L99.19999999999999,61.5167224527776L99.6,61.52093506743175L100,62.03968157686742L100.4,62.50877176172362L100.8,62.80796024357009L101.2,62.93670822155006L101.60000000000001,63.381800357851816L102,63.534743657189196L102.4,63.813667084787156L102.80000000000001,63.94211886760088L103.19999999999999,63.93183579546066L103.6,63.75226660773241L104,63.92688103476266L104.39999999999999,63.88560802398702L104.8,64.05901508245789L105.2,64.45334280367167L105.60000000000001,64.95022561950833L106,65.02220514903108L106.4,65.08397322973401L106.80000000000001,65.05817741264359L107.19999999999999,65.09415443023016L107.6,65.33418979426222L108,65.22911632424014L108.39999999999999,65.57814618111004L108.8,65.88156394124144L109.2,66.05558431639697L109.6,66.22982182390936L110,66.39506585078493L110.4,66.34975079507403L110.80000000000001,66.48265554954291L111.2,66.5868059658968L111.6,66.52653518118969L112,66.82493303387939L112.39999999999999,67.15062293731127L112.8,67.04637442868105L113.2,67.14792735127787L113.6,67.54955745059031L114,67.74057770781879L114.4,67.76959500727979L114.8,68.07676499060385L115.2,68.60361580039829L115.60000000000001,68.776777311067L116.00000000000001,69.0835360150105L116.39999999999999,69.47209792430803L116.8,69.46719039945725L117.2,69.36153190861177L117.6,69.50775486510706L118,69.67015428832678L118.4,70.05893001001367L118.8,70.2748744794923L119.2,70.75439172669576L119.60000000000001,70.9160901821435L120,71.36857741653613L120.39999999999999,71.37204195865881L120.8,71.66484638937553L121.2,71.92102093888447L121.6,71.83082780293591L122,71.72468491944369L122.4,72.06813172595783L122.8,72.43075971961302L123.2,72.68695378910716L123.60000000000001,72.70250944865263L124,72.84097033166759L124.4,73.40074813416274L124.80000000000001,73.42038859462426L125.19999999999999,73.64536164985203L125.6,74.04586022187803L126,74.52085070318842L126.39999999999999,74.71974847374753L126.8,74.58594023820419L127.2,74.85790996560668L127.60000000000001,75.1546356785532L128,75.27191931848674L128.4,75.40763669183114L128.8,75.56494701256368L129.2,75.82031497136606L129.6,75.63284145152427L130,76.02082293072085L130.4,76.41072075704209L130.8,76.85754958384327L131.20000000000002,77.15460087387575L131.6,77.4284821632798L132,77.48792729704243L132.4,78.02541924802338L132.8,78.27734674229092L133.2,78.80383105977265L133.6,78.71462640049707L134,78.78408012682527L134.4,78.8389223721321L134.8,79.12853037541711L135.20000000000002,79.23465444189944L135.6,79.67267762323932L136,79.98919237927261L136.4,80.18448227680794L136.79999999999998,80.6219707823998L137.2,80.94258919880306L137.6,81.14166267120095L138,81.35738731525863L138.4,81.40918206008962L138.8,81.51210052947238L139.20000000000002,81.91039261636183L139.6,82.13051412970873L140,82.43919696290298L140.4,82.59508692507707L140.8,82.86753308023088L141.20000000000002,83.05437063026712L141.6,83.39212640912004L142,83.43231488161341L142.4,84.01640999587579L142.8,84.03548620592551L143.20000000000002,83.9197622301547L143.60000000000002,84.1854204190306L144,84.21889608717343L144.39999999999998,84.36468512767988L144.79999999999998,84.64620600001246L145.2,84.77245600286665L145.6,84.81070956493434L146,85.09421647885056L146.4,85.18092461917175L146.79999999999998,85.47233070654724L147.2,85.8099619693044L147.6,86.23618246804456L148,86.28438393067242L148.4,86.42076534155294L148.8,86.76716427475016L149.2,86.93024662380628L149.6,87.37481571738152L150,87.5640531492924L150.4,87.75691782847152L150.8,87.87497830284393L151.20000000000002,88.41134988317137L151.60000000000002,88.49675283800983L152,88.33645090927303L152.4,88.45068079621602L152.8,88.82722269380662L153.2,89.10084284178038L153.6,89.5002239951969L154,89.83167747095682L154.39999999999998,90.15566575634014L154.79999999999998,90.38542810526658L155.2,90.39500148556918L155.6,90.43600704471505L156,90.71285762334509L156.4,91.22554507689676L156.8,91.56493025386075L157.2,91.80429149164145L157.6,92.26402600597271L158,92.41667887258176L158.4,92.87461679548058L158.8,92.98883767087435L159.20000000000002,93.33319235730941L159.6,93.65068737820252L160,93.897448163185L160.4,94.1479464190793L160.8,94.17663830560643L161.20000000000002,94.43294158771549L161.60000000000002,94.78877514725647L162.00000000000003,95.30073301382788L162.39999999999998,95.46016323210472L162.79999999999998,95.63014270549641L163.2,95.82823677283676L163.6,96.08443098452913L164,96.55049141044053L164.4,96.64461937628839L164.79999999999998,97.06698510764254L165.2,97.35986960443057L165.6,97.60232725314545L166,97.98217067261156L166.4,98.07035804012146L166.8,98.35853134355614L167.20000000000002,98.8127034991807L167.6,99.36016583669388L168,99.62128561360046L168.4,99.88962031900742L168.8,99.97153335967532L169.20000000000002,100.39183102037987L169.60000000000002,100.60006318405803L170,100.69551653144882L170.39999999999998,101.1191042645855L170.79999999999998,101.34875764200338L171.2,101.58807991330632L171.6,102.05697259091134L172,102.11233848617213L172.4,102.34726558005264L172.79999999999998,102.89025401708649L173.2,102.92199695397882L173.6,103.25926183131227L174,103.62998122181966L174.4,103.8844414689379L174.8,104.0133234326695L175.2,104.56426905759291L175.6,105.04925611163183L176,105.1930129173447L176.4,105.30257188007153L176.8,105.67480718553436L177.20000000000002,106.40415517414077L177.6,106.47440875548477L178,106.9253293875659L178.4,107.31349635302105L178.8,107.58404367801657L179.20000000000002,107.74154864932514L179.60000000000002,107.98790157179985L180,108.37133664056023L180.39999999999998,108.68808782626728L180.79999999999998,108.88819275715188L181.2,109.13704730844114L181.6,109.52738571726398L182,109.94703849002912L182.4,110.13169104799896L182.79999999999998,110.45823817379812L183.2,110.59382327295532L183.6,110.69584771535008L184,110.84507817277307L184.4,111.09759312899484L184.8,111.82688638489556L185.20000000000002,112.14073000096545L185.6,112.60477925617785L186,112.73842550173904L186.4,112.91681126168149L186.8,113.25137132836119L187.20000000000002,113.55983570983989L187.60000000000002,113.96376159611191L187.99999999999997,114.30400236074789L188.39999999999998,114.42922776899675L188.79999999999998,114.55847673095175L189.2,114.67304722869108L189.6,115.08208227883001L190,115.67067398394408L190.4,115.93293929697646L190.79999999999998,116.1701508704091L191.2,116.50378462247951L191.6,116.66429156490383L192,117.06970997898595L192.4,117.5124606069665L192.8,117.66784251109314L193.2,118.13749049006162L193.6,118.42340254968596L194,118.68241642347645L194.4,118.91663016992808L194.8,119.28427587321198L195.20000000000002,119.6278420499352L195.60000000000002,119.78831259752306L196,120.03280314991954L196.4,120.54783356179055L196.8,121.08704940654927L197.2,121.31298426670037L197.6,121.56726603892832L198,121.94422037161166L198.39999999999998,122.15386277283972L198.79999999999998,122.08972184671737L199.2,122.3753577500413L199.6,122.43184970920319L200,122.69079963925324L200.4,122.94334261030895L200.8,123.32788765179006L201.2,123.673244296557L201.6,123.79858970799117L202,123.88657611312209L202.4,124.10560927904649L202.8,124.64313781175888L203.20000000000002,124.78017414616141L203.6,124.9984615157056L204,125.53530242415542L204.4,126.01647860619661L204.8,126.313019669054L205.20000000000002,126.82547377521813L205.60000000000002,127.28416532555191L206,127.64731817512917L206.39999999999998,127.9867421476226L206.79999999999998,128.13879653772742L207.2,128.36633350944587L207.6,128.86113557130471L208,129.2621792542474L208.4,129.56298667972374L208.79999999999998,129.81734631387243L209.2,130.03807496789574L209.6,130.36110841001002L210,130.73709397731486L210.4,131.1343194432779L210.8,131.5143523550015L211.20000000000002,131.92910050462433L211.6,132.31149829857657L212,132.6135021882487L212.4,132.83678595643528L212.8,133.22193597363855L213.20000000000002,133.67358099702045L213.60000000000002,133.9796700723963L214,134.2848691154771L214.39999999999998,134.4099651658467L214.79999999999998,134.66781026297656L215.2,134.94231928677647L215.6,135.11267093130516L216,135.2191682712088L216.4,135.55640206480956L216.79999999999998,135.92709248578382L217.2,136.17233234640156L217.6,136.4398163873205L218,136.85652506906052L218.4,137.2591184474698L218.8,137.48780300367406L219.2,137.81357484585988L219.6,138.0495786793415L220,138.43266566808506L220.4,138.6479622747568L220.8,139.0303451742266L221.20000000000002,139.50242383064256L221.60000000000002,139.74460693681712L222,140.1379882601667L222.4,140.46390999604887L222.8,140.76440983653222L223.2,141.1334103517952L223.6,141.42765899569898L224,141.85985070619049L224.39999999999998,142.0376761391771L224.79999999999998,142.38551066823118L225.2,142.73379601306462L225.6,142.92160249751248L226,143.27863950429187L226.4,143.5434698195288L226.8,143.870389097314L227.2,144.2361664764456L227.6,144.60559212251178L228,144.89103875009363L228.4,145.21857834573774L228.8,145.5573457488897L229.20000000000002,145.83291339862774L229.6,146.09618075860868L230,146.35730118663423L230.4,146.58886023435124L230.8,146.85752154615943L231.20000000000002,147.07304837313976L231.60000000000002,147.34531587369082L232.00000000000003,147.55497364563053L232.39999999999998,147.84481479301843L232.79999999999998,148.07527243494204L233.2,148.25557547828873L233.6,148.44939681916097L234,148.65568200449073L234.4,148.8642648933488L234.79999999999998,149.06117528447623L235.2,149.27490556760256L235.6,149.49035283662909L236,149.67520426414873L236.4,149.85483124138338L236.8,149.937701587257L237.20000000000002,150.15201761724134L237.6,150.32203506198036L238,150.4558062304454L238.4,150.57454625430893L238.8,150.78975523782358L239.20000000000002,150.92841709614123L239.60000000000002,151.09303922547815L240,151.20804493275875L240.39999999999998,151.31867718833269L240.79999999999998,151.46664998500148L241.2,151.6030809035301L241.6,151.7288702104135L242,151.84944493189076L242.4,151.96521181855405L242.79999999999998,152.09953079710317L243.2,152.1820000317571L243.6,152.26723062716957L244,152.3136343465635L244.4,152.37480651089828L244.8,152.47258012291377L245.2,152.57192135425362L245.6,152.6543200084874L246,152.73029156769095L246.4,152.75896446877778L246.8,152.82217676661745L247.20000000000002,152.81150373261167L247.6,152.8890059158563L248,152.96046292880789L248.4,153.04473422980277L248.8,153.0856564862825L249.20000000000002,153.1693566637864L249.60000000000002,153.26951316242503L250,153.31588759067503L250.39999999999998,153.37703276150555L250.79999999999998,153.4426025830033L251.2,153.45249110793335L251.6,153.5167721589405L252,153.5668453139771L252.4,153.61760975638208L252.79999999999998,153.68280251379826L253.2,153.67855243758757L253.6,153.72979768541245L254,153.7678518428455L254.4,153.81213173706027L254.8,153.84376383846475L255.20000000000002,153.8361527399916L255.6,153.8153443526766L256,153.82833792207896L256.4,153.84951196705998L256.8,153.90581031957007L257.2,153.9025535695627L257.6,153.98229659258843L258,153.9776709067469L258.4,153.9871969789238L258.8,154.0281589135125L259.2,154.03834390169249L259.6,154.05233145425564" style="fill: none;" fill="none"></path></g></g></g></g><g opacity="0.2"><g><g><g><path stroke="rgb(255, 112, 67)" stroke-width="2px" d="M22,-8.68063747882843L22.400000000000002,2.1045892238616943L22.8,6.112227201461792L23.2,9.471553325653076L23.599999999999998,17.074263334274292L24,15.306190252304077L24.400000000000002,16.072353839874268L24.799999999999997,21.43550956249237L25.2,19.1370187997818L25.6,24.55910038948059L26,23.43931794166565L26.400000000000002,19.54956352710724L26.799999999999997,24.794846296310425L27.2,20.72828245162964L27.6,25.561009883880615L28,28.272055983543396L28.4,24.500163912773132L28.8,26.91652762889862L29.2,25.03059220314026L29.6,27.27014648914337L30,27.32908296585083L30.4,26.15036404132843L30.8,29.74544668197632L31.200000000000003,30.747356176376343L31.599999999999998,32.45648217201233L32,33.045846939086914L32.4,36.110501289367676L32.800000000000004,36.40518367290497L33.2,32.10287392139435L33.6,32.574355125427246L34,35.697945952415466L34.4,32.86903750896454L34.800000000000004,36.69985544681549L35.2,38.762610912323L35.6,35.9336918592453L36,37.348146080970764L36.4,36.64091897010803L36.8,41.53258287906647L37.2,37.760701417922974L37.6,36.169437766075134L38,40.94322872161865L38.4,40.29493808746338L38.8,41.237911105155945L39.2,40.825355768203735L39.6,37.46601903438568L40,42.71130180358887L40.400000000000006,44.89191961288452L40.8,35.9336918592453L41.199999999999996,41.47364640235901L41.6,46.54211974143982L42,40.76641929149628L42.400000000000006,40.17706513404846L42.8,43.35959243774414L43.199999999999996,44.53831136226654L43.6,42.59342885017395L44,42.18088412284851L44.4,37.17134726047516L44.800000000000004,46.01170206069946L45.199999999999996,41.35578405857086L45.6,47.01361155509949L46,40.118128657341L46.4,47.485092759132385L46.800000000000004,44.12575602531433L47.199999999999996,44.83298313617706L47.6,42.357682943344116L48,49.13529288768768L48.4,46.12957501411438L48.800000000000004,46.4242467880249L49.2,44.715110182762146L49.599999999999994,43.948946595191956L50,44.361501932144165L50.4,44.42043840885162L50.800000000000004,46.07063853740692L51.2,45.186601996421814L51.599999999999994,42.53449237346649L52,45.77595615386963L52.4,45.24553847312927L52.800000000000004,45.127665519714355L53.2,44.47937488555908L53.599999999999994,49.31210231781006L54,50.196138858795166L54.4,44.89191961288452L54.8,47.838711619377136L55.2,49.66571056842804L55.6,53.08398377895355L56,50.431884765625L56.4,41.35578405857086L56.8,48.13338339328766L57.2,51.25698482990265L57.6,49.96039295196533L58.00000000000001,46.77786564826965L58.4,46.77786564826965L58.8,48.13338339328766L59.2,51.787402510643005L59.6,47.6029657125473L60,46.659992694854736L60.4,46.4242467880249L60.8,50.01932942867279L61.2,45.540210247039795L61.6,52.78931200504303L62,53.4376026391983L62.400000000000006,46.60105621814728L62.8,50.49081063270569L63.199999999999996,51.61059308052063L63.6,54.203766226768494L64,51.08017539978027L64.4,47.72083866596222L64.8,50.196138858795166L65.2,54.43951213359833L65.60000000000001,51.72846603393555L66,50.49081063270569L66.4,53.378666162490845L66.8,46.54211974143982L67.2,53.08398377895355L67.60000000000001,50.01932942867279L68,49.429975271224976L68.39999999999999,55.26461219787598L68.8,50.431884765625L69.2,50.13720238208771L69.60000000000001,55.20567572116852L70,55.97183930873871L70.4,50.49081063270569L70.8,52.199947237968445L71.2,51.374847173690796L71.60000000000001,56.443320512771606L72,50.01932942867279L72.39999999999999,56.26651108264923L72.8,54.67524743080139L73.2,54.08589327335358L73.6,57.622039437294006L74,56.502256989479065L74.4,53.08398377895355L74.8,59.979466676712036L75.2,52.84824848175049L75.60000000000001,47.36721980571747L76,58.32926654815674L76.4,55.26461219787598L76.8,54.85205686092377L77.19999999999999,55.79502987861633L77.6,55.20567572116852L78,55.323548674583435L78.4,55.5592839717865L78.8,59.625847816467285L79.2,51.66952955722809L79.60000000000001,58.68287479877472L80,55.0878027677536L80.4,57.622039437294006L80.80000000000001,57.15054762363434L81.19999999999999,57.79884886741638L81.6,55.97183930873871L82,56.7380028963089L82.39999999999999,54.38057565689087L82.8,57.680975914001465L83.2,57.09161114692688L83.60000000000001,57.38629353046417L84,56.97374880313873L84.4,62.51370334625244L84.80000000000001,56.56119346618652L85.19999999999999,58.15245711803436L85.19999999999999,55.38247454166412L85.6,60.62775731086731L86,61.09923851490021L86.39999999999999,57.85777473449707L86.8,53.08398377895355L87.2,64.28177642822266L87.6,51.787402510643005L88,63.63347518444061L88.4,58.15245711803436L88.8,57.03267467021942L89.2,58.447139501571655L89.60000000000001,56.56119346618652L90,62.336893916130066L90.39999999999999,54.910993337631226L90.8,58.506075978279114L91.2,57.622039437294006L91.6,59.272239565849304L92,58.91862070560455L92.4,63.45667636394501L92.8,60.21521258354187L93.2,65.81410360336304L93.60000000000001,59.50797486305237L93.99999999999999,62.16008448600769L94.39999999999999,59.625847816467285L94.8,64.04603052139282L95.2,57.91671121120453L95.6,59.80265724658966L96,66.52133071422577L96.4,57.85777473449707L96.8,66.3445212841034L97.2,61.51179385185242L97.60000000000001,65.1068764925003L98,62.5726398229599L98.4,65.93197655677795L98.8,60.804566740989685L99.19999999999999,63.27986693382263L99.6,61.570730328559875L100,68.17153084278107L100.4,68.05365788936615L100.8,66.3445212841034L101.2,64.45857524871826L101.60000000000001,68.64301735162735L102,65.34261178970337L102.4,67.11068487167358L102.80000000000001,65.46048474311829L103.19999999999999,63.81028461456299L103.6,61.629666805267334L104,65.99091303348541L104.39999999999999,63.39773988723755L104.8,66.10877537727356L105.2,69.11449855566025L105.60000000000001,70.823635160923L106,65.8730400800705L106.4,65.81410360336304L106.80000000000001,64.75325763225555L107.19999999999999,65.51942121982574L107.6,68.17153084278107L108,63.987094044685364L108.39999999999999,69.70385801792145L108.8,69.468117415905L109.2,68.11259436607361L109.6,68.2893984913826L110,68.34833496809006L110.4,65.81410360336304L110.80000000000001,68.05365788936615L111.2,67.8179172873497L111.6,65.81410360336304L112,70.35214865207672L112.39999999999999,71.00044459104538L112.8,65.81410360336304L113.2,68.34833496809006L113.6,72.29703116416931L114,69.99853509664536L114.4,68.11259436607361L114.8,71.70767170190811L115.2,74.83126252889633L115.60000000000001,70.823635160923L116.00000000000001,72.70958119630814L116.39999999999999,74.06509894132614L116.8,69.40918093919754L117.2,68.11259436607361L117.6,71.23618519306183L118,71.5897987484932L118.4,74.65445840358734L118.8,72.82744884490967L119.2,76.42253148555756L119.60000000000001,72.82744884490967L120,76.71720856428146L120.39999999999999,71.4129946231842L120.8,75.12594491243362L121.2,74.94913548231125L121.6,70.76469868421555L122,70.47002160549164L122.4,76.12784910202026L122.8,76.71720856428146L123.2,75.71529906988144L123.60000000000001,72.88638532161713L124,74.47764897346497L124.4,80.01760882139206L124.80000000000001,73.65254890918732L125.19999999999999,76.30465853214264L125.6,78.77995872497559L126,80.13548177480698L126.39999999999999,77.07082211971283L126.8,73.00425827503204L127.2,78.07273161411285L127.60000000000001,78.66208577156067L128,76.658272087574L128.4,77.01188564300537L128.8,77.4244356751442L129.2,78.83889520168304L129.6,73.41680830717087L130,80.60696297883987L130.4,81.0195130109787L130.8,82.13929545879364L131.20000000000002,80.66589945554733L131.6,80.66589945554733L132,78.19059926271439L132.4,84.37884974479675L132.8,81.25525891780853L133.2,85.02714568376541L133.6,77.66018158197403L134,79.60505878925323L134.4,79.48718583583832L134.8,82.55184549093246L135.20000000000002,80.48909533023834L135.6,84.85033625364304L136,83.73055911064148L136.4,82.492909014225L136.79999999999998,85.7933092713356L137.2,84.73246330022812L137.6,83.49481320381165L138,83.90736323595047L138.4,82.02142250537872L138.8,82.72864961624146L139.20000000000002,86.61840933561325L139.6,84.73246330022812L140,86.08798635005951L140.4,84.43778622150421L140.8,86.08798635005951L141.20000000000002,85.26288628578186L141.6,87.38457292318344L142,83.90736323595047L142.4,90.92071378231049L142.8,84.26097679138184L143.20000000000002,82.55184549093246L143.60000000000002,87.32563644647598L144,84.61459565162659L144.39999999999998,86.08798635005951L144.79999999999998,87.97392708063126L145.2,86.26479578018188L145.6,85.26288628578186L146,88.44541358947754L146.4,86.20585930347443L146.79999999999998,88.91690009832382L147.2,89.80093663930893L147.6,91.27432733774185L148,86.8541499376297L148.4,88.03286355733871L148.8,90.86177730560303L149.2,88.85796362161636L149.6,92.62985038757324L150,89.80093663930893L150.4,90.03667724132538L150.8,89.27051365375519L151.20000000000002,94.75153702497482L151.60000000000002,89.50625956058502L152,86.44159990549088L152.4,89.80093663930893L152.8,93.27814102172852L153.2,92.33517330884933L153.6,94.22111403942108L154,93.7496275305748L154.39999999999998,93.98537343740463L154.79999999999998,93.10133689641953L155.2,90.50816375017166L155.6,90.92071378231049L156,93.98537343740463L156.4,97.28577369451523L156.8,95.57663708925247L157.2,94.6336640715599L157.6,97.69832372665405L158,94.22111403942108L158.4,98.28767788410187L158.8,94.338986992836L159.20000000000002,97.40364134311676L159.6,97.40364134311676L160,96.81428718566895L160.4,97.10896426439285L160.8,94.51579111814499L161.20000000000002,97.46257781982422L161.60000000000002,98.99491029977798L162.00000000000003,101.35233753919601L162.39999999999998,97.34471017122269L162.79999999999998,97.6393872499466L163.2,98.16981023550034L163.6,99.11277794837952L164,102.05956465005875L164.4,97.75726020336151L164.79999999999998,102.05956465005875L165.2,100.82191455364227L165.6,100.4683009982109L166,102.47211468219757L166.4,99.11277794837952L166.8,101.76488757133484L167.20000000000002,104.18125128746033L167.6,105.83145141601562L168,102.70785528421402L168.4,103.06147414445877L168.8,100.93978750705719L169.20000000000002,105.35996490716934L169.60000000000002,103.06147414445877L170,101.8238240480423L170.39999999999998,106.12612849473953L170.79999999999998,104.06337833404541L171.2,104.41699188947678L171.6,107.59952449798584L172,102.76679176092148L172.4,105.1242243051529L172.79999999999998,109.30865579843521L173.2,103.29721474647522L173.6,107.24590563774109L174,108.01207453012466L174.4,106.89229208230972L174.8,105.53677433729172L175.2,111.07672888040543L175.6,110.78205180168152L176,106.89229208230972L176.4,106.59761500358582L176.8,110.0748193860054L177.20000000000002,115.02542242407799L177.6,107.30484211444855L178,112.25544250011444L178.4,111.90182894468307L178.8,110.78205180168152L179.20000000000002,109.6033381819725L179.60000000000002,110.89991945028305L180,112.9037357866764L180.39999999999998,112.43224927783012L180.79999999999998,111.25353565812111L181.2,112.07863572239876L181.6,114.14138588309288L182,114.90754947066307L182.4,112.3143789768219L182.79999999999998,114.31819266080856L183.2,112.19650867581367L183.6,111.90182894468307L184,112.6090587079525L184.4,114.08244940638542L184.8,120.44750666618347L185.20000000000002,115.85052248835564L185.6,118.09007942676544L186,114.31819266080856L186.4,115.02542242407799L186.8,117.20604288578033L187.20000000000002,117.20604288578033L187.60000000000002,118.73837271332741L187.99999999999997,118.32582268118858L188.39999999999998,115.9094563126564L188.79999999999998,116.08626574277878L189.2,116.02732926607132L189.6,119.91708633303642L190,122.62812978029251L190.4,119.03304979205132L190.79999999999998,118.97411331534386L191.2,120.44750666618347L191.6,118.56156593561172L192,121.86196354031563L192.4,122.74600008130074L192.8,119.5045363008976L193.2,123.68897044658661L193.6,121.80302971601486L194,121.7440932393074L194.4,121.68515676259995L194.8,123.63003662228584L195.20000000000002,123.68897044658661L195.60000000000002,121.68515676259995L196,122.92280685901642L196.4,126.63575714826584L196.8,127.46085721254349L197.2,123.98365017771721L197.6,124.57300698757172L198,126.4000138938427L198.39999999999998,124.63194346427917L198.79999999999998,121.33154320716858L199.2,125.75172060728073L199.6,123.0996136367321L200,125.75172060728073L200.4,125.9285300374031L200.8,127.87340724468231L201.2,127.75553694367409L201.6,125.28023675084114L202,124.92662054300308L202.4,126.6946936249733L202.8,130.99700072407722L203.20000000000002,126.4000138938427L203.6,127.5787301659584L204,131.88103726506233L204.4,131.70422783493996L204.8,129.8182871043682L205.20000000000002,132.88294410705566L205.60000000000002,132.7061346769333L206,131.9399710893631L206.39999999999998,131.99890756607056L206.79999999999998,129.93615740537643L207.2,131.05593720078468L207.6,134.7099496871233L208,134.00272125005722L208.4,133.1186847090721L208.79999999999998,132.8240076303482L209.2,132.64720085263252L209.6,134.17952935397625L210,135.18143619596958L210.4,135.8297281563282L210.8,136.00653626024723L211.20000000000002,136.83163632452488L211.6,136.83163632452488L212,136.1833430379629L212.4,135.47611460089684L212.8,137.77460668981075L213.20000000000002,139.01225678622723L213.60000000000002,137.59779991209507L214,137.89247831702232L214.39999999999998,135.88866463303566L214.79999999999998,137.71567153930664L215.2,138.18715672194958L215.6,137.12631472945213L216,136.47802144289017L216.4,139.54267844557762L216.79999999999998,140.30884335935116L217.2,139.07119326293468L217.6,139.60161492228508L218,141.78223538398743L218.4,142.01797863841057L218.8,140.1909717321396L219.2,141.6643650829792L219.6,140.83926501870155L220,142.9609503298998L220.4,141.19287857413292L220.8,143.5503071397543L221.20000000000002,145.08263564109802L221.60000000000002,142.60733544826508L222,144.78795723617077L222.4,144.31647205352783L222.8,144.31647205352783L223.2,145.49518567323685L223.6,144.90582886338234L224,146.9685783609748L224.39999999999998,144.1396639496088L224.79999999999998,146.49709317833185L225.2,146.8507073968649L225.6,145.1415714547038L226,147.49900002032518L226.4,146.67389995604753L226.8,147.73474261164665L227.2,148.5598426759243L227.6,148.97239270806313L228,148.26516427099705L228.4,149.0902643352747L228.8,149.5617501810193L229.20000000000002,149.0902643352747L229.6,149.20813596248627L230,149.44387855380774L230.4,149.32600692659616L230.8,150.03323602676392L231.20000000000002,149.6206859946251L231.60000000000002,150.56365735456347L232.00000000000003,150.03323602676392L232.39999999999998,151.27088579162955L232.79999999999998,150.79939994588494L233.2,150.38684991374612L233.6,150.74046446383L234,151.09407868236303L234.4,151.32982160523534L234.79999999999998,151.3887570872903L235.2,151.8013071194291L235.6,152.03705004230142L236,151.8602429330349L236.4,151.97811422869563L236.8,150.9172715730965L237.20000000000002,152.68534299731255L237.6,152.33172844722867L238,152.03705004230142L238.4,151.97811422869563L238.8,153.33363578654826L239.20000000000002,152.56747137010098L239.60000000000002,153.03895721584558L240,152.56747137010098L240.39999999999998,152.62640718370676L240.79999999999998,153.2157643251121L241.2,153.2157643251121L241.6,153.2157643251121L242,153.27469997294247L242.4,153.33363578654826L242.79999999999998,153.6872500050813L243.2,153.15682867728174L243.6,153.27469997294247L244,152.86215010657907L244.4,153.09789286367595L244.8,153.62831435725093L245.2,153.74618565291166L245.6,153.62831435725093L246,153.62831435725093L246.4,153.09789286367595L246.8,153.56937854364514L247.20000000000002,152.68534299731255L247.6,153.80512146651745L248,153.80512146651745L248.4,154.04086422361434L248.8,153.56937854364514L249.20000000000002,154.1587356850505L249.60000000000002,154.45341433864087L250,153.86405711434782L250.39999999999998,154.09980003722012L250.79999999999998,154.21767149865627L251.2,153.56937854364514L251.6,154.27660714648664L252,154.1587356850505L252.4,154.21767149865627L252.79999999999998,154.45341433864087L253.2,153.62831435725093L253.6,154.335542794317L254,154.21767149865627L254.4,154.335542794317L254.8,154.21767149865627L255.20000000000002,153.74618565291166L255.6,153.56937854364514L256,153.98192857578397L256.4,154.09980003722012L256.8,154.5712857171893L257.2,153.86405711434782L257.6,154.92490001861006L258,153.9229929279536L258.4,154.09980003722012L258.8,154.51234998647124L259.2,154.1587356850505L259.6,154.21767149865627" style="fill: none;" fill="none"></path></g></g></g></g></g></g><g transform="translate(50, 178)" clip-path="url(#clip_1)"><clipPath id="clip_1"><rect width="280" height="22"></rect></clipPath><g><g><line x1="0" y1="0" x2="0" y2="5" style="visibility: inherit;" fill="rgb(0, 0, 0)" stroke="rgb(204, 204, 204)" stroke-width="1px"></line><line x1="20" y1="0" x2="20" y2="5" style="visibility: inherit;" fill="rgb(0, 0, 0)" stroke="rgb(204, 204, 204)" stroke-width="1px"></line><line x1="40" y1="0" x2="40" y2="5" style="visibility: inherit;" fill="rgb(0, 0, 0)" stroke="rgb(204, 204, 204)" stroke-width="1px"></line><line x1="60" y1="0" x2="60" y2="5" style="visibility: inherit;" fill="rgb(0, 0, 0)" stroke="rgb(204, 204, 204)" stroke-width="1px"></line><line x1="80" y1="0" x2="80" y2="5" style="visibility: inherit;" fill="rgb(0, 0, 0)" stroke="rgb(204, 204, 204)" stroke-width="1px"></line><line x1="100" y1="0" x2="100" y2="5" style="visibility: inherit;" fill="rgb(0, 0, 0)" stroke="rgb(204, 204, 204)" stroke-width="1px"></line><line x1="120" y1="0" x2="120" y2="5" style="visibility: inherit;" fill="rgb(0, 0, 0)" stroke="rgb(204, 204, 204)" stroke-width="1px"></line><line x1="140" y1="0" x2="140" y2="5" style="visibility: inherit;" fill="rgb(0, 0, 0)" stroke="rgb(204, 204, 204)" stroke-width="1px"></line><line x1="160" y1="0" x2="160" y2="5" style="visibility: inherit;" fill="rgb(0, 0, 0)" stroke="rgb(204, 204, 204)" stroke-width="1px"></line><line x1="180" y1="0" x2="180" y2="5" style="visibility: inherit;" fill="rgb(0, 0, 0)" stroke="rgb(204, 204, 204)" stroke-width="1px"></line><line x1="200" y1="0" x2="200" y2="5" style="visibility: inherit;" fill="rgb(0, 0, 0)" stroke="rgb(204, 204, 204)" stroke-width="1px"></line><line x1="220" y1="0" x2="220" y2="5" style="visibility: inherit;" fill="rgb(0, 0, 0)" stroke="rgb(204, 204, 204)" stroke-width="1px"></line><line x1="240" y1="0" x2="240" y2="5" style="visibility: inherit;" fill="rgb(0, 0, 0)" stroke="rgb(204, 204, 204)" stroke-width="1px"></line><line x1="260" y1="0" x2="260" y2="5" style="visibility: inherit;" fill="rgb(0, 0, 0)" stroke="rgb(204, 204, 204)" stroke-width="1px"></line><line x1="280" y1="0" x2="280" y2="5" style="visibility: inherit;" fill="rgb(0, 0, 0)" stroke="rgb(204, 204, 204)" stroke-width="1px"></line></g><g transform="translate(0, 8)"><text x="0" y="0" dx="0em" dy="0.95em" style="text-anchor: middle; visibility: hidden; font-family: &quot;Helvetica Neue&quot;, sans-serif; font-size: 12px; font-weight: 200;" fill="rgb(50, 49, 63)" stroke="none" stroke-width="1px">-50</text><text x="20" y="0" dx="0em" dy="0.95em" style="text-anchor: middle; visibility: inherit; font-family: &quot;Helvetica Neue&quot;, sans-serif; font-size: 12px; font-weight: 200;" fill="rgb(50, 49, 63)" stroke="none" stroke-width="1px">0</text><text x="40" y="0" dx="0em" dy="0.95em" style="text-anchor: middle; visibility: hidden; font-family: &quot;Helvetica Neue&quot;, sans-serif; font-size: 12px; font-weight: 200;" fill="rgb(50, 49, 63)" stroke="none" stroke-width="1px">50</text><text x="60" y="0" dx="0em" dy="0.95em" style="text-anchor: middle; visibility: inherit; font-family: &quot;Helvetica Neue&quot;, sans-serif; font-size: 12px; font-weight: 200;" fill="rgb(50, 49, 63)" stroke="none" stroke-width="1px">100</text><text x="80" y="0" dx="0em" dy="0.95em" style="text-anchor: middle; visibility: hidden; font-family: &quot;Helvetica Neue&quot;, sans-serif; font-size: 12px; font-weight: 200;" fill="rgb(50, 49, 63)" stroke="none" stroke-width="1px">150</text><text x="100" y="0" dx="0em" dy="0.95em" style="text-anchor: middle; visibility: inherit; font-family: &quot;Helvetica Neue&quot;, sans-serif; font-size: 12px; font-weight: 200;" fill="rgb(50, 49, 63)" stroke="none" stroke-width="1px">200</text><text x="120" y="0" dx="0em" dy="0.95em" style="text-anchor: middle; visibility: hidden; font-family: &quot;Helvetica Neue&quot;, sans-serif; font-size: 12px; font-weight: 200;" fill="rgb(50, 49, 63)" stroke="none" stroke-width="1px">250</text><text x="140" y="0" dx="0em" dy="0.95em" style="text-anchor: middle; visibility: inherit; font-family: &quot;Helvetica Neue&quot;, sans-serif; font-size: 12px; font-weight: 200;" fill="rgb(50, 49, 63)" stroke="none" stroke-width="1px">300</text><text x="160" y="0" dx="0em" dy="0.95em" style="text-anchor: middle; visibility: hidden; font-family: &quot;Helvetica Neue&quot;, sans-serif; font-size: 12px; font-weight: 200;" fill="rgb(50, 49, 63)" stroke="none" stroke-width="1px">350</text><text x="180" y="0" dx="0em" dy="0.95em" style="text-anchor: middle; visibility: inherit; font-family: &quot;Helvetica Neue&quot;, sans-serif; font-size: 12px; font-weight: 200;" fill="rgb(50, 49, 63)" stroke="none" stroke-width="1px">400</text><text x="200" y="0" dx="0em" dy="0.95em" style="text-anchor: middle; visibility: hidden; font-family: &quot;Helvetica Neue&quot;, sans-serif; font-size: 12px; font-weight: 200;" fill="rgb(50, 49, 63)" stroke="none" stroke-width="1px">450</text><text x="220" y="0" dx="0em" dy="0.95em" style="text-anchor: middle; visibility: inherit; font-family: &quot;Helvetica Neue&quot;, sans-serif; font-size: 12px; font-weight: 200;" fill="rgb(50, 49, 63)" stroke="none" stroke-width="1px">500</text><text x="240" y="0" dx="0em" dy="0.95em" style="text-anchor: middle; visibility: hidden; font-family: &quot;Helvetica Neue&quot;, sans-serif; font-size: 12px; font-weight: 200;" fill="rgb(50, 49, 63)" stroke="none" stroke-width="1px">550</text><text x="260" y="0" dx="0em" dy="0.95em" style="text-anchor: middle; visibility: inherit; font-family: &quot;Helvetica Neue&quot;, sans-serif; font-size: 12px; font-weight: 200;" fill="rgb(50, 49, 63)" stroke="none" stroke-width="1px">600</text><text x="280" y="0" dx="0em" dy="0.95em" style="text-anchor: middle; visibility: hidden; font-family: &quot;Helvetica Neue&quot;, sans-serif; font-size: 12px; font-weight: 200;" fill="rgb(50, 49, 63)" stroke="none" stroke-width="1px">650</text></g><line x1="0" y1="0" x2="280" y2="0" fill="rgb(0, 0, 0)" stroke="rgb(204, 204, 204)" stroke-width="1px"></line></g></g></g></g></svg>