<svg viewBox="0 0 330 200" xmlns="http://www.w3.org/2000/svg"><g><g><g><g><g><line x1="70" y1="178" x2="65" y2="178" style="visibility: inherit;" fill="rgb(0, 0, 0)" stroke="rgb(204, 204, 204)" stroke-width="1px"></line><line x1="70" y1="164.30769230769232" x2="65" y2="164.30769230769232" style="visibility: inherit;" fill="rgb(0, 0, 0)" stroke="rgb(204, 204, 204)" stroke-width="1px"></line><line x1="70" y1="150.6153846153846" x2="65" y2="150.6153846153846" style="visibility: inherit;" fill="rgb(0, 0, 0)" stroke="rgb(204, 204, 204)" stroke-width="1px"></line><line x1="70" y1="136.9230769230769" x2="65" y2="136.9230769230769" style="visibility: inherit;" fill="rgb(0, 0, 0)" stroke="rgb(204, 204, 204)" stroke-width="1px"></line><line x1="70" y1="123.23076923076924" x2="65" y2="123.23076923076924" style="visibility: inherit;" fill="rgb(0, 0, 0)" stroke="rgb(204, 204, 204)" stroke-width="1px"></line><line x1="70" y1="109.53846153846153" x2="65" y2="109.53846153846153" style="visibility: inherit;" fill="rgb(0, 0, 0)" stroke="rgb(204, 204, 204)" stroke-width="1px"></line><line x1="70" y1="95.84615384615383" x2="65" y2="95.84615384615383" style="visibility: inherit;" fill="rgb(0, 0, 0)" stroke="rgb(204, 204, 204)" stroke-width="1px"></line><line x1="70" y1="82.15384615384616" x2="65" y2="82.15384615384616" style="visibility: inherit;" fill="rgb(0, 0, 0)" stroke="rgb(204, 204, 204)" stroke-width="1px"></line><line x1="70" y1="68.46153846153845" x2="65" y2="68.46153846153845" style="visibility: inherit;" fill="rgb(0, 0, 0)" stroke="rgb(204, 204, 204)" stroke-width="1px"></line><line x1="70" y1="54.76923076923076" x2="65" y2="54.76923076923076" style="visibility: inherit;" fill="rgb(0, 0, 0)" stroke="rgb(204, 204, 204)" stroke-width="1px"></line><line x1="70" y1="41.076923076923066" x2="65" y2="41.076923076923066" style="visibility: inherit;" fill="rgb(0, 0, 0)" stroke="rgb(204, 204, 204)" stroke-width="1px"></line><line x1="70" y1="27.38461538461536" x2="65" y2="27.38461538461536" style="visibility: inherit;" fill="rgb(0, 0, 0)" stroke="rgb(204, 204, 204)" stroke-width="1px"></line><line x1="70" y1="13.69230769230765" x2="65" y2="13.69230769230765" style="visibility: inherit;" fill="rgb(0, 0, 0)" stroke="rgb(204, 204, 204)" stroke-width="1px"></line></g><g transform="translate(60, 0)"><text x="0" y="178" dx="0em" dy="0.3em" style="text-anchor: end; visibility: hidden; font-family: &quot;Helvetica Neue&quot;, sans-serif; font-size: 12px; font-weight: 200;" fill="rgb(50, 49, 63)" stroke="none" stroke-width="1px">-1e-4</text><text x="0" y="164.30769230769232" dx="0em" dy="0.3em" style="text-anchor: end; visibility: inherit; font-family: &quot;Helvetica Neue&quot;, sans-serif; font-size: 12px; font-weight: 200;" fill="rgb(50, 49, 63)" stroke="none" stroke-width="1px">0</text><text x="0" y="150.6153846153846" dx="0em" dy="0.3em" style="text-anchor: end; visibility: hidden; font-family: &quot;Helvetica Neue&quot;, sans-serif; font-size: 12px; font-weight: 200;" fill="rgb(50, 49, 63)" stroke="none" stroke-width="1px">1e-4</text><text x="0" y="136.9230769230769" dx="0em" dy="0.3em" style="text-anchor: end; visibility: inherit; font-family: &quot;Helvetica Neue&quot;, sans-serif; font-size: 12px; font-weight: 200;" fill="rgb(50, 49, 63)" stroke="none" stroke-width="1px">2e-4</text><text x="0" y="123.23076923076924" dx="0em" dy="0.3em" style="text-anchor: end; visibility: hidden; font-family: &quot;Helvetica Neue&quot;, sans-serif; font-size: 12px; font-weight: 200;" fill="rgb(50, 49, 63)" stroke="none" stroke-width="1px">3e-4</text><text x="0" y="109.53846153846153" dx="0em" dy="0.3em" style="text-anchor: end; visibility: inherit; font-family: &quot;Helvetica Neue&quot;, sans-serif; font-size: 12px; font-weight: 200;" fill="rgb(50, 49, 63)" stroke="none" stroke-width="1px">4e-4</text><text x="0" y="95.84615384615383" dx="0em" dy="0.3em" style="text-anchor: end; visibility: hidden; font-family: &quot;Helvetica Neue&quot;, sans-serif; font-size: 12px; font-weight: 200;" fill="rgb(50, 49, 63)" stroke="none" stroke-width="1px">5e-4</text><text x="0" y="82.15384615384616" dx="0em" dy="0.3em" style="text-anchor: end; visibility: inherit; font-family: &quot;Helvetica Neue&quot;, sans-serif; font-size: 12px; font-weight: 200;" fill="rgb(50, 49, 63)" stroke="none" stroke-width="1px">6e-4</text><text x="0" y="68.46153846153845" dx="0em" dy="0.3em" style="text-anchor: end; visibility: hidden; font-family: &quot;Helvetica Neue&quot;, sans-serif; font-size: 12px; font-weight: 200;" fill="rgb(50, 49, 63)" stroke="none" stroke-width="1px">7e-4</text><text x="0" y="54.76923076923076" dx="0em" dy="0.3em" style="text-anchor: end; visibility: inherit; font-family: &quot;Helvetica Neue&quot;, sans-serif; font-size: 12px; font-weight: 200;" fill="rgb(50, 49, 63)" stroke="none" stroke-width="1px">8e-4</text><text x="0" y="41.076923076923066" dx="0em" dy="0.3em" style="text-anchor: end; visibility: hidden; font-family: &quot;Helvetica Neue&quot;, sans-serif; font-size: 12px; font-weight: 200;" fill="rgb(50, 49, 63)" stroke="none" stroke-width="1px">9e-4</text><text x="0" y="27.38461538461536" dx="0em" dy="0.3em" style="text-anchor: end; visibility: inherit; font-family: &quot;Helvetica Neue&quot;, sans-serif; font-size: 12px; font-weight: 200;" fill="rgb(50, 49, 63)" stroke="none" stroke-width="1px">1e-3</text><text x="0" y="13.69230769230765" dx="0em" dy="0.3em" style="text-anchor: end; visibility: hidden; font-family: &quot;Helvetica Neue&quot;, sans-serif; font-size: 12px; font-weight: 200;" fill="rgb(50, 49, 63)" stroke="none" stroke-width="1px">1.1e-3</text></g><line x1="70" y1="0" x2="70" y2="178" fill="rgb(0, 0, 0)" stroke="rgb(204, 204, 204)" stroke-width="1px"></line></g></g><g transform="translate(70, 0)" clip-path="url(#clip_0)"><clipPath id="clip_0"><rect width="260" height="178"></rect></clipPath><g><g><g><line x1="0" y1="0" x2="0" y2="178" fill="rgb(0, 0, 0)" stroke="rgb(60, 60, 60)" stroke-width="1px" opacity="0.25"></line><line x1="18.57142857142857" y1="0" x2="18.57142857142857" y2="178" fill="rgb(0, 0, 0)" stroke="rgb(60, 60, 60)" stroke-width="1px" opacity="0.25"></line><line x1="37.14285714285714" y1="0" x2="37.14285714285714" y2="178" fill="rgb(0, 0, 0)" stroke="rgb(60, 60, 60)" stroke-width="1px" opacity="0.25"></line><line x1="55.71428571428571" y1="0" x2="55.71428571428571" y2="178" fill="rgb(0, 0, 0)" stroke="rgb(60, 60, 60)" stroke-width="1px" opacity="0.25"></line><line x1="74.28571428571428" y1="0" x2="74.28571428571428" y2="178" fill="rgb(0, 0, 0)" stroke="rgb(60, 60, 60)" stroke-width="1px" opacity="0.25"></line><line x1="92.85714285714286" y1="0" x2="92.85714285714286" y2="178" fill="rgb(0, 0, 0)" stroke="rgb(60, 60, 60)" stroke-width="1px" opacity="0.25"></line><line x1="111.42857142857142" y1="0" x2="111.42857142857142" y2="178" fill="rgb(0, 0, 0)" stroke="rgb(60, 60, 60)" stroke-width="1px" opacity="0.25"></line><line x1="130" y1="0" x2="130" y2="178" fill="rgb(0, 0, 0)" stroke="rgb(60, 60, 60)" stroke-width="1px" opacity="0.25"></line><line x1="148.57142857142856" y1="0" x2="148.57142857142856" y2="178" fill="rgb(0, 0, 0)" stroke="rgb(60, 60, 60)" stroke-width="1px" opacity="0.25"></line><line x1="167.14285714285717" y1="0" x2="167.14285714285717" y2="178" fill="rgb(0, 0, 0)" stroke="rgb(60, 60, 60)" stroke-width="1px" opacity="0.25"></line><line x1="185.71428571428572" y1="0" x2="185.71428571428572" y2="178" fill="rgb(0, 0, 0)" stroke="rgb(60, 60, 60)" stroke-width="1px" opacity="0.25"></line><line x1="204.28571428571428" y1="0" x2="204.28571428571428" y2="178" fill="rgb(0, 0, 0)" stroke="rgb(60, 60, 60)" stroke-width="1px" opacity="0.25"></line><line x1="222.85714285714283" y1="0" x2="222.85714285714283" y2="178" fill="rgb(0, 0, 0)" stroke="rgb(60, 60, 60)" stroke-width="1px" opacity="0.25"></line><line x1="241.42857142857144" y1="0" x2="241.42857142857144" y2="178" fill="rgb(0, 0, 0)" stroke="rgb(60, 60, 60)" stroke-width="1px" opacity="0.25"></line><line x1="260" y1="0" x2="260" y2="178" fill="rgb(0, 0, 0)" stroke="rgb(60, 60, 60)" stroke-width="1px" opacity="0.25"></line></g><g><line x1="0" y1="178" x2="260" y2="178" fill="rgb(0, 0, 0)" stroke="rgb(60, 60, 60)" stroke-width="1px" opacity="0.25"></line><line x1="0" y1="164.30769230769232" x2="260" y2="164.30769230769232" fill="rgb(0, 0, 0)" stroke="rgb(60, 60, 60)" stroke-width="1px" opacity="0.25"></line><line x1="0" y1="150.6153846153846" x2="260" y2="150.6153846153846" fill="rgb(0, 0, 0)" stroke="rgb(60, 60, 60)" stroke-width="1px" opacity="0.25"></line><line x1="0" y1="136.9230769230769" x2="260" y2="136.9230769230769" fill="rgb(0, 0, 0)" stroke="rgb(60, 60, 60)" stroke-width="1px" opacity="0.25"></line><line x1="0" y1="123.23076923076924" x2="260" y2="123.23076923076924" fill="rgb(0, 0, 0)" stroke="rgb(60, 60, 60)" stroke-width="1px" opacity="0.25"></line><line x1="0" y1="109.53846153846153" x2="260" y2="109.53846153846153" fill="rgb(0, 0, 0)" stroke="rgb(60, 60, 60)" stroke-width="1px" opacity="0.25"></line><line x1="0" y1="95.84615384615383" x2="260" y2="95.84615384615383" fill="rgb(0, 0, 0)" stroke="rgb(60, 60, 60)" stroke-width="1px" opacity="0.25"></line><line x1="0" y1="82.15384615384616" x2="260" y2="82.15384615384616" fill="rgb(0, 0, 0)" stroke="rgb(60, 60, 60)" stroke-width="1px" opacity="0.25"></line><line x1="0" y1="68.46153846153845" x2="260" y2="68.46153846153845" fill="rgb(0, 0, 0)" stroke="rgb(60, 60, 60)" stroke-width="1px" opacity="0.25"></line><line x1="0" y1="54.76923076923076" x2="260" y2="54.76923076923076" fill="rgb(0, 0, 0)" stroke="rgb(60, 60, 60)" stroke-width="1px" opacity="0.25"></line><line x1="0" y1="41.076923076923066" x2="260" y2="41.076923076923066" fill="rgb(0, 0, 0)" stroke="rgb(60, 60, 60)" stroke-width="1px" opacity="0.25"></line><line x1="0" y1="27.38461538461536" x2="260" y2="27.38461538461536" fill="rgb(0, 0, 0)" stroke="rgb(60, 60, 60)" stroke-width="1px" opacity="0.25"></line><line x1="0" y1="13.69230769230765" x2="260" y2="13.69230769230765" fill="rgb(0, 0, 0)" stroke="rgb(60, 60, 60)" stroke-width="1px" opacity="0.25"></line></g></g></g><g><g><line x1="0" y1="164.30769230769232" x2="260" y2="164.30769230769232" fill="rgb(0, 0, 0)" stroke="rgb(153, 153, 153)" stroke-width="1.5px"></line></g></g><g><g><line x1="18.57142857142857" y1="0" x2="18.57142857142857" y2="178" fill="rgb(0, 0, 0)" stroke="rgb(153, 153, 153)" stroke-width="1.5px"></line></g></g><g><g><g><g><g><path stroke="rgb(255, 112, 67)" stroke-width="2px" d="M25.62857142857143,-2.024610951734047L26,0.43137551547599173L26.37142857142857,2.4384330134899983L26.742857142857144,4.263564493714227L27.114285714285714,6.02152907583735L27.485714285714288,7.540067412948929L27.857142857142854,9.154890991583045L28.228571428571428,10.588780717558421L28.6,11.985879878501606L28.97142857142857,13.397468792724823L29.34285714285714,14.76196189560983L29.71428571428571,16.126108208811758L30.085714285714285,17.54711817888915L30.45714285714286,18.56532524375436L30.82857142857143,19.459063223962232L31.2,20.398234094510258L31.57142857142857,21.554259503268355L31.942857142857143,22.190521032865917L32.31428571428572,23.133190646149984L32.68571428571429,24.16815495386723L33.05714285714286,24.933507518791316L33.42857142857142,25.783994721054313L33.800000000000004,26.496716528370825L34.17142857142857,27.468422694392046L34.542857142857144,27.997240423532702L34.91428571428571,28.66075344474629L35.285714285714285,29.213043676862185L35.65714285714286,29.75138822192153L36.028571428571425,30.27157871520663L36.400000000000006,30.624245830445176L36.77142857142857,30.8746660917065L37.14285714285714,31.592782960905993L37.51428571428572,32.12198500416528L37.885714285714286,32.32910581913569L38.25714285714285,32.84873473609815L38.62857142857143,33.52764201546344L39,33.839219999841845L39.371428571428574,34.112414379607515L39.74285714285714,34.61723964757866L40.114285714285714,35.243802528461316L40.48571428571429,35.68327917039488L40.857142857142854,36.04523601259183L41.22857142857143,36.04168553041376L41.6,36.668082014482735L41.97142857142857,36.804337586824715L42.34285714285715,37.25505552173772L42.714285714285715,37.296689506801414L43.08571428571428,37.844056465927764L43.457142857142856,38.26951313129436L43.82857142857143,38.45094591815618L44.2,38.76251768134239L44.57142857142857,39.25074977834498L44.94285714285714,39.39167195370533L45.31428571428572,39.64010912772744L45.68571428571428,39.74403610269519L46.05714285714286,39.748543918544726L46.42857142857143,39.87963313973796L46.8,40.074858994329446L47.17142857142857,40.39689658785889L47.542857142857144,40.47598386496739L47.91428571428571,40.45981918509409L48.285714285714285,40.63519829968655L48.65714285714286,40.788998371502345L49.02857142857143,40.92367466402345L49.4,41.03445266540598L49.77142857142857,41.397395626780565L50.142857142857146,41.790270198766024L50.51428571428571,41.94835974784914L50.88571428571428,42.150904502831395L51.25714285714286,42.47501413744911L51.628571428571426,42.94728889008792L52,43.26178930406175L52.371428571428574,43.010755281884144L52.74285714285714,43.20684295614615L53.114285714285714,43.49897149857799L53.48571428571429,43.66347682089997L53.85714285714286,43.74102192253633L54.22857142857143,43.855577992957194L54.6,43.9152082309416L54.971428571428575,44.2991851524618L55.34285714285714,44.64614223751451L55.71428571428571,44.75028474190188L56.08571428571429,44.72902742044238L56.457142857142856,44.880771055138126L56.82857142857143,44.82877737543063L57.2,45.35590307603209L57.57142857142857,45.694742694404766L57.94285714285714,45.576724730769484L58.31428571428572,45.59020054452719L58.68571428571428,45.823044740360984L59.05714285714286,46.45693392078485L59.42857142857142,46.61789086964393L59.800000000000004,46.512099416429805L60.17142857142857,46.50007935268047L60.54285714285714,46.853236842125796L60.91428571428572,47.074393437669386L61.285714285714285,47.093933685466936L61.65714285714286,47.19114659971041L62.02857142857143,47.06964565271815L62.4,47.47319537474527L62.77142857142857,47.67134727782906L63.14285714285714,47.748036371137914L63.51428571428571,47.87764934900625L63.885714285714286,47.94620807993988L64.25714285714285,48.047364492441915L64.62857142857143,48.10526256924683L65,48.458866053885544L65.37142857142858,48.54879671011611L65.74285714285713,48.7061108813802L66.11428571428571,48.80963026412306L66.4857142857143,49.15708827520007L66.85714285714285,49.06339425332095L67.22857142857143,49.360909540554246L67.60000000000001,49.47031768737864L67.97142857142858,49.62980888163602L68.34285714285714,50.027427189915215L68.71428571428572,50.273543567650876L69.08571428571429,50.297322648010294L69.45714285714286,50.650176021198476L69.82857142857142,50.63407741786202L70.2,50.27395558114881L70.57142857142857,50.590889321092476L70.94285714285714,50.86247491480951L71.31428571428572,51.1203426106366L71.68571428571428,51.24065232332745L72.05714285714285,51.420181925834456L72.42857142857143,51.45678086146053L72.80000000000001,51.67000131346569L73.17142857142856,52.02092716989742L73.54285714285714,51.81819386967827L73.91428571428573,52.05288380715696L74.28571428571428,52.170111615365L74.65714285714286,52.39559367530347L75.02857142857144,52.57442474591127L75.39999999999999,52.78942823255839L75.77142857142857,52.83225131590568L76.14285714285715,53.0747757194256L76.5142857142857,53.046873298124396L76.88571428571429,53.27285409383613L77.25714285714287,53.41231103412137L77.62857142857143,53.519464796025815L78,53.705530278881554L78.37142857142857,54.07990755430369L78.74285714285715,54.0644079741556L79.11428571428571,54.274781762061096L79.11428571428571,54.259642093594834L79.48571428571428,54.37599603839659L79.85714285714286,54.60351618297494L80.22857142857143,54.6923273902982L80.6,54.409506645714345L80.97142857142858,54.99163959820851L81.34285714285714,54.81357953703079L81.71428571428571,55.33955463836634L82.08571428571429,55.42175295271184L82.45714285714286,55.532224590425L82.82857142857142,55.709066953128456L83.2,55.68662148878279L83.57142857142858,56.105585191521186L83.94285714285714,55.922866609787334L84.31428571428572,56.149332036133714L84.6857142857143,56.20764090722061L85.05714285714285,56.21194318761479L85.42857142857143,56.24632264526103L85.8,56.62862568957752L86.17142857142856,56.79571946490677L86.54285714285714,57.14056365085601L86.91428571428571,57.351686130874015L87.28571428571428,57.54808231272622L87.65714285714286,57.57159104904997L88.02857142857142,57.94285669615368L88.4,57.978989614305306L88.77142857142857,58.02699704900061L89.14285714285714,58.43768062416072L89.51428571428572,58.27142905735023L89.88571428571429,58.61176449690015L90.25714285714285,58.949318503066436L90.62857142857143,59.1834601977485L91,59.4566929927588L91.37142857142857,59.707078130169776L91.74285714285715,59.75971696411935L92.11428571428571,60.06310856002236L92.48571428571428,60.149464575609215L92.85714285714286,60.51449851504253L93.22857142857144,60.85700471722072L93.6,60.9011651392032L93.97142857142858,61.18136416836067L94.34285714285714,61.61989084765371L94.71428571428571,61.7309944627859L95.08571428571429,61.98530114221053L95.45714285714286,62.142507910299756L95.82857142857142,62.130334124593944L96.2,62.207736544351874L96.57142857142857,62.37265299820906L96.94285714285714,62.53470346918641L97.31428571428572,62.578843708018695L97.68571428571428,62.93420493261743L98.05714285714286,63.32459314875955L98.42857142857143,63.50937463675892L98.8,63.532464967953004L99.17142857142858,63.45763662781205L99.54285714285714,63.41059066310666L99.91428571428571,63.55533291594831L100.28571428571429,63.621716474656864L100.65714285714286,64.04719806083789L101.02857142857142,64.28444440394969L101.4,64.52206838830897L101.77142857142856,64.70604771082306L102.14285714285714,64.84269645497086L102.51428571428572,64.98208394464257L102.88571428571429,65.14592926737028L103.25714285714285,65.28637798241195L103.62857142857143,65.31249186652857L104,65.66957480014116L104.37142857142857,66.0604774505015L104.74285714285715,65.80887378457051L105.11428571428571,66.06435140096242L105.48571428571428,66.47966096040342L105.85714285714286,66.71746154537603L106.22857142857143,66.84191335348365L106.6,67.12346301195262L106.97142857142858,67.49629298552063L107.34285714285714,67.53376322428574L107.71428571428572,67.76331240950277L108.08571428571429,68.13370329914581L108.45714285714286,68.19849820860176L108.82857142857144,68.19753920223783L109.2,68.38256860763762L109.57142857142857,68.57011211152451L109.94285714285715,68.80874391348652L110.3142857142857,69.10851740313693L110.68571428571428,69.50364396072979L111.05714285714286,69.69998989377122L111.42857142857142,70.10944838806039L111.8,70.20782300082705L112.17142857142858,70.50156156749102L112.54285714285714,70.69184778216857L112.91428571428571,70.73549275452132L113.28571428571429,70.6935384438419L113.65714285714286,71.02764984369769L114.02857142857142,71.3736508992021L114.4,71.59765404289155L114.77142857142857,71.71378221800414L115.14285714285714,72.00511425960424L115.51428571428572,72.52492375836302L115.88571428571429,72.70639288457772L116.25714285714285,72.79665852721008L116.62857142857143,73.21536482158092L117,73.66599356912799L117.37142857142857,73.8775794563073L117.74285714285713,73.8730056675983L118.11428571428571,74.07145467823923L118.4857142857143,74.30484546674478L118.85714285714285,74.39365992903335L119.22857142857143,74.6802755677197L119.60000000000001,74.87200450389828L119.97142857142856,75.09714604797331L120.34285714285714,75.18082890502707L120.71428571428572,75.59845094506376L121.08571428571427,75.99016947601895L121.45714285714286,76.34393126024595L121.82857142857144,76.55181306219632L122.19999999999999,76.75843530573324L122.57142857142857,76.9876118605359L122.94285714285715,77.41458625604766L123.31428571428572,77.49794744533132L123.68571428571428,77.94737842569963L124.05714285714286,78.01648503713905L124.42857142857143,78.16923640898126L124.8,78.39862460013057L125.17142857142858,78.68663975160099L125.54285714285714,78.7618654501449L125.91428571428571,79.14553311562288L126.28571428571428,79.52492679141659L126.65714285714286,79.74221642320167L127.02857142857142,80.06770339916486L127.39999999999999,80.48081853910308L127.77142857142857,80.6655981710702L128.14285714285714,80.83057397514018L128.5142857142857,80.94136255792249L128.8857142857143,81.13326520875069L129.25714285714287,81.60795054657028L129.62857142857143,81.9517991549266L130,82.17305372498542L130.37142857142857,82.42378729503672L130.74285714285716,82.69974352426811L131.11428571428573,82.91552483606493L131.48571428571427,83.29439851967945L131.85714285714286,83.4217913230325L132.22857142857143,83.90598767954974L132.6,83.89742536285088L132.9714285714286,83.91012643038354L133.34285714285716,84.2284285042386L133.7142857142857,84.3494482992273L134.0857142857143,84.34140728778567L134.45714285714286,84.78899415750861L134.82857142857142,84.91881432228968L135.20000000000002,85.09419848657775L135.57142857142858,85.44191016525812L135.94285714285715,85.64851066875873L136.31428571428572,86.05298960386878L136.68571428571428,86.41748763704676L137.05714285714285,86.75279577944013L137.42857142857144,86.95448203465891L137.8,87.09279352841399L138.17142857142858,87.49416072467787L138.54285714285712,87.69729123556249L138.9142857142857,88.08240462590855L139.28571428571428,88.23069588830498L139.65714285714284,88.44835095534333L140.02857142857144,88.74437880336293L140.4,89.28839907422822L140.77142857142857,89.40982895310397L141.14285714285714,89.31370102313741L141.5142857142857,89.54588504886839L141.88571428571427,89.8440236424223L142.25714285714287,90.23606878811106L142.62857142857143,90.60252010814082L143,90.76249462385L143.37142857142857,91.1039645298268L143.74285714285713,91.42094761090043L144.1142857142857,91.42933280704247L144.4857142857143,91.61266364189308L144.85714285714286,91.95730678878928L145.22857142857143,92.48895007518857L145.60000000000002,92.94794376155659L145.97142857142856,93.28837339168783L146.34285714285713,93.74796237339146L146.71428571428572,93.8734587244651L147.0857142857143,94.3030786922131L147.45714285714286,94.64943298648186L147.82857142857145,94.92669162805957L148.2,95.094734684762L148.57142857142856,95.46705075654761L148.94285714285715,95.87166701666429L149.31428571428572,95.99091430847632L149.68571428571428,96.26389442604808L150.05714285714288,96.5149946278107L150.42857142857144,97.0982573057046L150.79999999999998,97.40448344528123L151.17142857142858,97.57098174142989L151.54285714285714,97.7804231027566L151.9142857142857,98.01865604392223L152.2857142857143,98.32532647711841L152.65714285714287,98.5494117006749L153.0285714285714,98.99672138667864L153.4,99.19238997220945L153.77142857142857,99.49211740976249L154.14285714285714,99.89493648462229L154.51428571428573,100.0126442649553L154.8857142857143,100.35626939224379L155.25714285714287,100.9038007875684L155.6285714285714,101.42259152026719L156,101.73795333028576L156.37142857142857,102.11667683801491L156.74285714285713,102.3707117638932L157.11428571428573,102.69370501287167L157.4857142857143,102.85676729449382L157.85714285714283,102.88139534413418L158.22857142857143,103.3367638144611L158.6,103.72894821703223L158.97142857142856,104.04251637225919L159.34285714285716,104.53623089505518L159.71428571428572,104.68615320685231L160.0857142857143,104.96864504584788L160.45714285714286,105.39584202735033L160.82857142857142,105.5135290628121L161.2,105.91896452830505L161.57142857142858,106.25552100691024L161.94285714285715,106.52199423071347L162.31428571428572,106.6393468813396L162.68571428571428,107.1967391801442L163.05714285714285,107.64911914798559L163.42857142857142,107.86649751174372L163.8,108.00058885223099L164.17142857142858,108.28219613135386L164.54285714285714,108.95900525179393L164.9142857142857,109.17243132649774L165.28571428571428,109.65151368599031L165.65714285714284,110.04405200136344L166.02857142857144,110.35780379372446L166.4,110.55915006950444L166.77142857142857,110.83547411591084L167.14285714285717,111.24970726622206L167.5142857142857,111.6785538954403L167.88571428571427,112.0283661847183L168.25714285714287,112.29421222051012L168.62857142857143,112.65280683277429L169,113.13541241461782L169.3714285714286,113.35674890229757L169.74285714285713,113.59227982701742L170.1142857142857,113.78457800012943L170.48571428571427,114.05922573266434L170.85714285714286,114.41467915120506L171.22857142857143,114.66470619235831L171.6,115.32679157686341L171.9714285714286,115.74941220299903L172.34285714285713,116.21299907636784L172.7142857142857,116.3574357231087L173.0857142857143,116.55785787587297L173.45714285714286,116.93737457414824L173.82857142857142,117.35762737632524L174.20000000000002,117.79829882775536L174.57142857142856,118.17604733817004L174.94285714285712,118.34499499561755L175.31428571428572,118.58263365136997L175.68571428571428,118.72622713587174L176.05714285714285,119.07999982683499L176.42857142857144,119.70614306514396L176.8,120.08472923590091L177.17142857142855,120.32833666703735L177.54285714285714,120.6547025085224L177.9142857142857,120.89070825148309L178.28571428571428,121.28944109337456L178.65714285714287,121.78950391702763L179.02857142857144,122.06563293754522L179.39999999999998,122.51381590988346L179.77142857142857,122.78429367710908L180.14285714285714,122.9799641862835L180.5142857142857,123.26151705530809L180.8857142857143,123.69838291989049L181.25714285714287,124.10843110206713L181.62857142857143,124.30940697155107L182,124.60166730250253L182.37142857142857,125.03421237732607L182.74285714285713,125.55673847790217L183.11428571428573,125.88292772701465L183.4857142857143,126.1077806740625L183.85714285714286,126.50601428887074L184.22857142857143,126.78766794557217L184.6,126.87362319059051L184.97142857142856,127.20388381218481L185.34285714285716,127.33850615984929L185.71428571428572,127.66758543888469L186.0857142857143,127.93466296587755L186.45714285714288,128.2378235502706L186.82857142857142,128.58702343015318L187.2,128.73143884769527L187.57142857142856,128.89016393283774L187.94285714285715,129.18808837513876L188.31428571428572,129.75855748062125L188.68571428571428,129.98975166981546L189.05714285714285,130.2459709085681L189.42857142857142,130.817888923463L189.79999999999998,131.327749729446L190.17142857142858,131.6504842449097L190.54285714285714,132.09172955059896L190.9142857142857,132.47870958702805L191.2857142857143,132.82587492393398L191.65714285714284,133.15661953244592L192.0285714285714,133.37218658697327L192.4,133.7552659277118L192.77142857142857,134.25076566282928L193.14285714285714,134.62985075545316L193.51428571428573,135.059439690757L193.88571428571427,135.40009694170826L194.25714285714284,135.55898201190703L194.62857142857143,135.97022800961366L195,136.33341912566115L195.37142857142857,136.69318214940807L195.74285714285716,137.0657582805306L196.11428571428573,137.3709468701815L196.48571428571427,137.63169295357923L196.85714285714286,137.98599632555408L197.22857142857143,138.26641580110345L197.6,138.65962436465654L197.9714285714286,139.1215158573996L198.34285714285716,139.35880923931708L198.7142857142857,139.7322659326486L199.0857142857143,139.92933469984075L199.45714285714286,140.18201314832908L199.82857142857142,140.40964419131848L200.20000000000002,140.6425229063858L200.57142857142858,140.76223269180045L200.94285714285715,141.13699136633645L201.31428571428572,141.49865601332718L201.68571428571428,141.77533170099483L202.05714285714285,142.0987125326892L202.42857142857144,142.5263825857258L202.8,142.95785948794287L203.17142857142858,143.23282614310213L203.54285714285712,143.60591630729562L203.9142857142857,143.85225325274092L204.28571428571428,144.25003652908052L204.65714285714284,144.52426787990476L205.02857142857144,144.9147111231141L205.4,145.3728294902061L205.77142857142857,145.65444580657334L206.14285714285714,146.05498865596866L206.5142857142857,146.40369379499683L206.88571428571427,146.7437529999467L207.25714285714287,147.09211417892885L207.62857142857143,147.38354815612303L208,147.80719624086151L208.37142857142857,148.03537651698335L208.74285714285713,148.38722310705103L209.1142857142857,148.6921685504449L209.4857142857143,148.86958599249346L209.85714285714286,149.1762635102433L210.22857142857143,149.45772954227013L210.60000000000002,149.77380695661046L210.97142857142856,150.12682683134045L211.34285714285713,150.49417172836962L211.71428571428572,150.8019307297442L212.0857142857143,151.10549155730473L212.45714285714286,151.39887137550696L212.82857142857145,151.6648244148442L213.2,151.92983563838706L213.57142857142856,152.17332120699308L213.94285714285715,152.43900983366672L214.31428571428572,152.69932091466143L214.68571428571428,152.92972723652494L215.05714285714288,153.20630075020117L215.42857142857144,153.4482181970685L215.79999999999998,153.71184705069606L216.17142857142858,153.97909833461074L216.54285714285714,154.17295703139013L216.9142857142857,154.36766618822702L217.2857142857143,154.58461051048482L217.65714285714287,154.79147172243955L218.0285714285714,154.98441334832714L218.4,155.21023989107894L218.77142857142857,155.46825658472667L219.14285714285714,155.66780664750627L219.51428571428573,155.86951286087202L219.8857142857143,155.9817968864396L220.25714285714287,156.16793335022987L220.6285714285714,156.32693003969052L221,156.47553437971087L221.37142857142857,156.57370888733752L221.74285714285713,156.75467656857944L222.11428571428573,156.9041627206695L222.4857142857143,157.05595515630182L222.85714285714283,157.16746938453358L223.22857142857143,157.29008270129214L223.6,157.4252780009109L223.97142857142856,157.56223506584698L224.34285714285716,157.69395710603567L224.71428571428572,157.85160512747254L225.0857142857143,157.97198150037684L225.45714285714286,158.10659508783223L225.82857142857142,158.2115615992401L226.2,158.31914859361626L226.57142857142858,158.3737796789037L226.94285714285715,158.45508020200822L227.31428571428572,158.56280539148932L227.68571428571428,158.66267480309594L228.05714285714285,158.7325159520149L228.42857142857142,158.82362857748137L228.8,158.8873084998579L229.17142857142858,158.95886658723302L229.54285714285714,158.97310477821048L229.9142857142857,159.03614646215195L230.28571428571428,159.10537758874676L230.65714285714284,159.18886484717845L231.02857142857144,159.22923117561473L231.4,159.30226028671632L231.77142857142857,159.40171508026992L232.14285714285717,159.45868391328244L232.5142857142857,159.52457720991617L232.88571428571427,159.5703392014355L233.25714285714287,159.60131724483762L233.62857142857143,159.6533651943858L234,159.69119563167487L234.3714285714286,159.75663698398276L234.74285714285713,159.8148101336391L235.1142857142857,159.83860822271947L235.48571428571427,159.88542847649447L235.85714285714286,159.9231252486118L236.22857142857143,159.96759338578673L236.6,159.99727259995927L236.9714285714286,159.97830778649853L237.34285714285713,159.98616663494602L237.7142857142857,159.99979006134836L238.0857142857143,160.0218999908277L238.45714285714286,160.04001011704537L238.82857142857142,160.05209005684904L239.20000000000002,160.10589328361712L239.57142857142856,160.1255115517735L239.94285714285712,160.1526540799946L240.31428571428572,160.1741529621974L240.68571428571428,160.1874481655782L241.05714285714285,160.18254746054834" style="fill: none;" fill="none"></path></g></g></g></g><g opacity="0.2"><g><g><g><path stroke="rgb(255, 112, 67)" stroke-width="2px" d="M20.8,-1.4204002799323234L21.171428571428574,1.5798956918028466L21.54285714285714,5.739440035648045L21.914285714285715,13.380268163405901L22.285714285714285,11.092009493078166L22.65714285714286,14.180772154377024L23.02857142857143,17.25179365793099L23.4,17.653751227431542L23.771428571428572,20.645423689427275L24.142857142857142,20.06589514303664L24.514285714285716,16.091429489736356L24.885714285714286,21.181197089357994L25.257142857142856,20.271568241314213L25.62857142857143,20.820699314371865L26,23.74127962583532L26.37142857142857,21.852204974740715L26.742857142857144,22.223366572306674L27.114285714285714,23.591922349941257L27.485714285714288,22.933714239643137L27.857142857142854,25.736625884014813L28.228571428571428,25.486193422801193L28.6,26.65699825435874L28.97142857142857,28.366015297289067L29.34285714285714,29.36057216731399L29.71428571428571,30.84034890466583L30.085714285714285,32.98933231372098L30.45714285714286,29.705974815270054L30.82857142857143,29.29912368294137L31.2,30.797884893675246L31.57142857142857,34.422572384373495L31.942857142857143,29.30726899435885L32.31428571428572,33.72390072606501L32.68571428571429,35.84306049977357L33.05714285714286,33.59929818330474L33.42857142857142,35.446761610416246L33.800000000000004,34.61978934232431L34.17142857142857,38.5752864621866L34.542857142857144,34.057866464154074L34.91428571428571,36.283704313521184L35.285714285714285,35.57247197928908L35.65714285714286,35.96308030861499L36.028571428571425,36.28524251812351L36.400000000000006,34.70840746135664L36.77142857142857,33.77941158127325L37.14285714285714,39.93494775103261L37.51428571428572,38.27799056542034L37.885714285714286,34.7414987852367L38.25714285714285,38.908016854610565L38.62857142857143,41.45269343514855L39,37.47992538589122L39.371428571428574,37.307510980906386L39.74285714285714,40.526263886059695L40.114285714285714,42.583417277353306L40.48571428571429,40.83499669269298L40.857142857142854,40.29100625159646L41.22857142857143,36.00001315901483L41.6,44.02423679140895L41.97142857142857,38.405286958727686L42.34285714285715,42.55330672301349L42.714285714285715,37.78631502074688L43.08571428571428,44.283794870600076L43.457142857142856,43.27682875412012L43.82857142857143,40.587003042921395L44.2,42.4318841990943L44.57142857142857,45.002295819326065L44.94285714285714,41.05222625041807L45.31428571428572,42.56828230046307L45.68571428571428,40.96923493164087L46.05714285714286,39.801697788616764L46.42857142857143,41.42566725998543L46.8,42.37771229918758L47.17142857142857,44.19622081790405L47.542857142857144,41.40917738784964L47.91428571428571,40.26905694861824L48.285714285714285,42.70514266020976L48.65714285714286,42.60446597349184L49.02857142857143,42.513576412430155L49.4,42.34235750325021L49.77142857142857,45.68289158106421L50.142857142857146,46.42958232087011L50.51428571428571,43.81532788448607L50.88571428571428,44.54304212088192L51.25714285714286,46.30313871457025L51.628571428571426,48.52576466520816L52,46.97685639044411L52.371428571428574,40.045236224022034L52.74285714285714,45.523380560800405L53.114285714285714,46.95026856374281L53.48571428571429,45.60707323711651L53.85714285714286,44.657235880167434L54.22857142857143,45.20913253352043L54.6,44.6198009215295L54.971428571428575,48.836402295157285L55.34285714285714,48.74603078227776L55.71428571428571,45.98093665520156L56.08571428571429,44.477823839737795L56.457142857142856,46.674005423170996L56.82857142857143,44.214328594362485L57.2,51.58546083850355L57.57142857142857,49.69920755750857L57.94285714285714,44.181946597993345L58.31428571428572,45.74946475745392L58.68571428571428,48.57495533259441L59.05714285714286,53.94875679551981L59.42857142857142,48.52023350461744L59.800000000000004,45.261742318908745L60.17142857142857,46.358011972015845L60.54285714285714,51.02730775710481L60.91428571428572,49.688328545683845L61.285714285714285,47.324889129171L61.65714285714286,48.3401599565091L62.02857142857143,45.63354948420937L62.4,52.243031351039036L62.77142857142857,50.013455584788545L63.14285714285714,48.65448768350939L63.51428571428571,49.409658473558125L63.885714285714286,48.75656708530508L64.25714285714285,49.24303026826908L64.62857142857143,48.789618559324964L65,52.63847745338883L65.37142857142858,49.61178493428113L65.74285714285713,50.565583367330504L66.11428571428571,50.033245025345906L66.4857142857143,53.26410431801699L66.85714285714285,47.95591166486531L67.22857142857143,52.877608494259974L67.60000000000001,50.76354950265241L67.97142857142858,51.515038165622016L68.34285714285714,54.72739118323301L68.71428571428572,53.182714963618366L69.08571428571429,50.5783990823592L69.45714285714286,54.82102241467396L69.82857142857142,50.443786254725765L70.2,46.01718408800659L70.57142857142857,54.33716541256467L70.94285714285714,54.072721740517466L71.31428571428572,54.168441104631L71.68571428571428,52.662761958172666L72.05714285714285,53.542296191820725L72.42857142857143,51.88939572197313L72.80000000000001,54.190358527721116L73.17142857142856,56.16902363443603L73.54285714285714,49.42179674096403L73.91428571428573,54.82702380361464L74.28571428571428,53.55579732444423L74.65714285714286,55.06089466294415L75.02857142857144,54.68829050044026L75.39999999999999,55.33086949558211L75.77142857142857,53.3384402471666L76.14285714285715,55.94152875273272L76.5142857142857,52.717053407659876L76.88571428571429,55.94405523386712L77.25714285714287,55.0607591734196L77.62857142857143,54.78607408731028L78,55.90491470121418L78.37142857142857,58.50522965651291L78.74285714285715,53.88119534259803L79.11428571428571,56.761503385379896L79.11428571428571,54.0806837425782L79.48571428571428,55.751357250058874L79.85714285714286,57.29291721060871L80.22857142857143,55.7421200524729L80.6,51.066424379841635L80.97142857142858,61.87274208965782L81.34285714285714,52.708820426550034L81.71428571428571,61.55684427816706L82.08571428571429,56.39337834715842L82.45714285714286,56.838054966754626L82.82857142857142,57.79943284320716L83.2,55.42130476823792L83.57142857142858,61.057947938831944L83.94285714285714,53.76304050721227L84.31428571428572,58.82626809996481L84.6857142857143,56.89688133032848L85.05714285714285,56.262798325373566L85.42857142857143,56.652705297160594L85.8,61.14764200408871L86.17142857142856,58.770852884420975L86.54285714285714,61.21679745141702L86.91428571428571,59.847261367222416L87.28571428571428,59.869585258886204L87.65714285714286,57.8494762976009L88.02857142857142,62.33140601017152L88.4,58.40609914436935L88.77142857142857,58.5944694333638L89.14285714285714,63.29217019877754L89.51428571428572,56.30625061289621L89.88571428571429,62.63470329587848L90.25714285714285,62.939379386747106L90.62857142857143,61.95113473457212L91,62.6864443543152L91.37142857142857,62.666758523394265L91.74285714285715,60.381934911012635L92.11428571428571,63.649352465398024L92.48571428571428,61.17023687480159L92.85714285714286,64.82938652456951L93.22857142857144,64.90560336711887L93.6,61.42316393726145L93.97142857142858,64.49346017336042L94.34285714285714,66.80350077725373L94.71428571428571,63.04429609858644L95.08571428571429,64.99133635627534L95.45714285714286,64.00077244223883L95.82857142857142,61.98643374070524L96.2,63.12267280355667L96.57142857142857,64.3220499848517L96.94285714285714,64.45022307508265L97.31428571428572,63.100603950997936L97.68571428571428,67.13475672485163L98.05714285714286,67.93918194206287L98.42857142857143,65.69358653202652L98.8,63.8054045177996L99.17142857142858,62.57312729195331L99.54285714285714,62.85448324465406L99.91428571428571,65.26626054154565L100.28571428571429,64.4064041688465L100.65714285714286,69.0766085307472L101.02857142857142,67.08881780605475L101.4,67.33090570655006L101.77142857142856,66.88077762608344L102.14285714285714,66.45795466980107L102.51428571428572,66.62971553707925L102.88571428571429,67.08266498764546L103.25714285714285,66.94655380526987L103.62857142857143,65.62117136613679L104,69.89047816481727L104.37142857142857,70.68114721029995L104.74285714285715,62.834789443761096L105.11428571428571,69.08422782401053L105.48571428571428,71.38883290697748L105.85714285714286,69.52838639542459L106.22857142857143,68.31299754031573L106.6,70.4515243460639L106.97142857142858,71.90333445155275L107.34285714285714,67.97668066047703L107.71428571428572,70.47670148771542L108.08571428571429,72.51191354600282L108.45714285714286,68.9644072644699L108.82857142857144,68.18620325524645L109.2,70.56971106133781L109.57142857142857,70.78697249895103L109.94285714285715,71.62949418247891L110.3142857142857,72.65199377445073L110.68571428571428,74.17424249276517L111.05714285714286,72.0208995090081L111.42857142857142,74.94945776247633L111.8,71.37066137074277L112.17142857142858,73.9737020564767L112.54285714285714,72.94112841985546L112.91428571428571,71.25139870924444L113.28571428571429,70.19761697704402L113.65714285714286,74.97701792576564L114.02857142857142,75.46356080844997L114.4,74.24548607276608L114.77142857142857,73.08647679981704L115.14285714285714,75.44880839021732L115.51428571428572,78.66933859913394L115.88571428571429,74.8514510163894L116.25714285714285,73.8636447126762L116.62857142857143,78.16468793999115L117,78.9926564545872L117.37142857142857,76.37863314739212L117.74285714285713,73.81894113954442L118.11428571428571,76.41722375197477L118.4857142857143,77.06364427363641L118.85714285714285,75.44349241887147L119.22857142857143,78.06821939850656L119.60000000000001,77.13833885152752L119.97142857142856,77.75843455556492L120.34285714285714,76.17000318949039L120.71428571428572,80.5349576225361L121.08571428571427,80.62048339241971L121.45714285714286,80.52557696545352L121.82857142857144,79.00908256694673L122.19999999999999,79.200816184139L122.57142857142857,79.69659626440932L122.94285714285715,82.4616425716533L123.31428571428572,78.48331945188914L123.68571428571428,83.25988309056712L124.05714285714286,78.83336062356828L124.42857142857143,79.97483595804525L124.8,81.11011065428073L125.17142857142858,82.09112654182199L125.54285714285714,79.65107178415815L125.91428571428571,83.68068167395316L126.28571428571428,84.00955459991326L126.65714285714286,82.31069130135269L127.02857142857142,83.91512637126903L127.39999999999999,85.36405134688202L127.77142857142857,82.84978817962109L128.14285714285714,82.78067258215293L128.5142857142857,82.25094042102305L128.8857142857143,83.40165295308597L129.25714285714287,87.2189746678162L129.62857142857143,86.01626603821148L130,84.78839620689932L130.37142857142857,85.38758667429478L130.74285714285716,85.96168766973109L131.11428571428573,85.46617059853787L131.48571428571427,87.77287975412148L131.85714285714286,84.9276395882838L132.22857142857143,89.62943691932236L132.6,83.79621438854014L132.9714285714286,84.06025956198572L133.34285714285716,87.99092224899391L133.7142857142857,85.77996433741197L134.0857142857143,84.24635840895084L134.45714285714286,90.07970048931354L134.82857142857142,86.45335524443249L135.20000000000002,87.16732924904386L135.57142857142858,89.55204052091216L135.94285714285715,88.09063456909587L136.31428571428572,90.83413804193528L136.68571428571428,90.72604131125486L137.05714285714285,90.71630997540285L137.42857142857144,89.3385170001823L137.8,88.72770631356306L138.17142857142858,92.23852681382915L138.54285714285712,90.09839804370242L138.9142857142857,92.63464239382972L139.28571428571428,89.98357465662633L139.65714285714284,91.02114546571212L140.02857142857144,92.24357977609793L140.4,95.71899766059448L140.77142857142857,90.84519239314473L141.14285714285714,88.17741959456066L141.5142857142857,92.2904193017345L141.88571428571427,93.3681747098095L142.25714285714287,94.87024345893698L142.62857142857143,94.93416263463978L143,92.65347543774314L143.37142857142857,95.14031393123932L143.74285714285713,95.16785018461253L144.1142857142857,91.52845012554181L144.4857142857143,93.77972812563753L144.85714285714286,96.0311655251739L145.22857142857143,98.77324635800547L145.60000000000002,98.37348451579992L145.97142857142856,97.31242619913357L146.34285714285713,99.18053982378197L146.71428571428572,95.35688995125774L147.0857142857143,99.3814070289238L147.45714285714286,98.74351836232324L147.82857142857145,98.20403095542524L148.2,97.08108979091047L148.57142857142856,99.86801765637041L148.94285714285715,100.65443870675963L149.31428571428572,97.40047845015158L149.68571428571428,99.49065940554897L150.05714285714288,99.48312778197801L150.42857142857144,103.99272126747437L150.79999999999998,101.02423345412198L151.17142857142858,99.53907698564804L151.54285714285714,100.25612739946405L151.9142857142857,100.83469157923871L152.2857142857143,101.95032826438545L152.65714285714287,101.19821395861126L153.0285714285714,104.28415126482453L153.4,101.50529299604777L153.77142857142857,103.03504942801708L154.14285714285714,104.65646452334923L154.51428571428573,101.40401059145536L154.8857142857143,104.41809461480722L155.25714285714287,107.3759026656357L155.6285714285714,107.55496402729588L156,105.46569164871022L156.37142857142857,106.59338291655652L156.74285714285713,105.37353486209533L157.11428571428573,106.51165085336049L157.4857142857143,104.78424708495058L157.85714285714283,103.17251152065224L158.22857142857143,108.71945265601747L158.6,108.36476897562925L158.97142857142856,107.74905277122384L159.34285714285716,110.37218974143839L159.71428571428572,106.45831181553119L160.0857142857143,108.3078434503852L160.45714285714286,110.4455294240839L160.82857142857142,106.90465017429624L161.2,110.71141964605506L161.57142857142858,110.23379117708939L161.94285714285715,109.67184438900304L162.31428571428572,108.02651539258657L162.68571428571428,113.78540199421919L163.05714285714285,112.9964823575977L163.42857142857142,110.43602124744882L163.8,109.58561726158054L164.17142857142858,111.61093858457528L164.54285714285714,116.95923613699583L164.9142857142857,111.69523697876586L165.28571428571428,115.31451285845385L165.65714285714284,114.68405619077384L166.02857142857144,114.06651087778692L166.4,112.93916630372405L166.77142857142857,114.10176604907386L167.14285714285717,116.14615553015699L167.5142857142857,116.7477409741483L167.88571428571427,116.1633268349016L168.25714285714287,115.43664869486999L168.62857142857143,116.89157904440967L169,118.84005788205047L169.3714285714286,115.97305969256334L169.74285714285713,116.3763761422955L170.1142857142857,116.05764102076108L170.48571428571427,117.30570277621825L170.85714285714286,118.61632084216063L171.22857142857143,117.62015403778507L171.6,123.15298035268027L171.9714285714286,120.74500473244832L172.34285714285713,121.69283365644515L172.7142857142857,118.06475095766095L173.0857142857143,118.92695050213773L173.45714285714286,121.42345657170965L173.82857142857142,122.32523101231513L174.20000000000002,123.00726136901918L174.57142857142856,122.64122844845629L174.94285714285712,120.34204294647162L175.31428571428572,121.39164442834085L175.68571428571428,120.42357576036682L176.05714285714285,123.26177445591355L176.42857142857144,127.10747724105245L176.8,124.5598119210022L177.17142857142855,123.20790142995807L177.54285714285714,124.51251412197374L177.9142857142857,123.68041716186472L178.28571428571428,126.00266776291224L178.65714285714287,127.70050293508058L179.02857142857144,125.32961956468912L179.39999999999998,127.8115684803432L179.77142857142857,125.98147959226313L180.14285714285714,125.29288994857612L180.5142857142857,126.58961635326537L180.8857142857143,128.86236147303134L181.25714285714287,128.9554108965139L181.62857142857143,126.6850448133997L182,128.0563342914415L182.37142857142857,130.14711697972737L182.74285714285713,131.73326494881454L183.11428571428573,129.73865192806204L183.4857142857143,128.76565781737176L183.85714285714286,131.21333983827094L184.22857142857143,130.1169586055554L184.6,127.88965826632025L184.97142857142856,131.10773372385077L185.34285714285716,128.92981134634465L185.71428571428572,131.5574712756878L186.0857142857143,131.09165629776766L186.45714285714288,131.82133712476264L186.82857142857142,132.7147450872267L187.2,130.43850314223135L187.57142857142856,130.76637583670134L187.94285714285715,132.709708064902L188.31428571428572,136.50179485568347L188.68571428571428,132.72258554721395L189.05714285714285,133.2746137051055L189.42857142857142,137.57825315081013L189.79999999999998,137.35456592324547L190.17142857142858,135.4653717225704L190.54285714285714,137.30747534348987L190.9142857142857,137.05301206892068L191.2857142857143,136.9295472396681L191.65714285714284,137.06619041767686L192.0285714285714,135.92029971869374L192.4,138.28346018618547L192.77142857142857,140.107826634346L193.14285714285714,139.11083095287904L193.51428571428573,140.1374012080666L193.88571428571427,139.42684034397826L194.25714285714284,137.43708502117974L194.62857142857143,140.8313665978897L195,140.62652436919655L195.37142857142857,140.94576558395505L195.74285714285716,141.4697992150815L196.11428571428573,140.97843250682433L196.48571428571427,140.71384537528053L196.85714285714286,142.17404387633388L197.22857142857143,141.58111780695617L197.6,143.30755123127108L197.9714285714286,144.58131016905492L198.34285714285716,142.1637387024955L198.7142857142857,144.14671556408015L199.0857142857143,142.25878858895828L199.45714285714286,143.16880198815264L199.82857142857142,143.10035985332127L200.20000000000002,143.3952687434637L200.57142857142858,142.1772637450351L200.94285714285715,145.5668310832877L201.31428571428572,145.77371760980728L201.68571428571428,145.0457802141945L202.05714285714285,145.92123979964077L202.42857142857144,147.5816619305943L202.8,148.05813774235475L203.17142857142858,146.48307301562565L203.54285714285712,148.01603337635214L203.9142857142857,146.76408227454297L204.28571428571428,148.95203884683838L204.65714285714284,147.76582307810895L205.02857142857144,149.52995048515282L205.4,150.78802352172966L205.77142857142857,148.98329508465787L206.14285714285714,150.78961054241068L206.5142857142857,150.52556736145812L206.88571428571427,150.76342719179004L207.25714285714287,151.2099219612562L207.62857142857143,150.82844721987988L208,152.81493385789844L208.37142857142857,150.73258439626974L208.74285714285713,152.54623023579973L209.1142857142857,152.29678007363916L209.4857142857143,150.96675114081097L209.85714285714286,152.8013490405686L210.22857142857143,152.78480238238205L210.60000000000002,153.51000408509458L210.97142857142856,154.2997027864823L211.34285714285713,154.83637679325273L211.71428571428572,154.4397999511208L212.0857142857143,154.6937362112893L212.45714285714286,154.8667712778462L212.82857142857145,154.80852572598423L213.2,155.06240420385552L213.57142857142856,155.05144549231045L213.94285714285715,155.5795856515268L214.31428571428572,155.7763313848812L214.68571428571428,155.65324811803964L215.05714285714288,156.47554151442512L215.42857142857144,156.30780647927L215.79999999999998,156.82807529485748L216.17142857142858,157.13814556242252L216.54285714285714,156.46446624203907L216.9142857142857,156.66922827288866L217.2857142857143,157.14900365307068L217.65714285714287,157.23667733041714L218.0285714285714,157.26508231074192L218.4,157.87962543488874L218.77142857142857,158.51814621989615L219.14285714285714,158.02659072292647L219.51428571428573,158.25378374193903L219.8857142857143,157.3090516502002L220.25714285714287,158.36816180682777L220.6285714285714,158.20635244587902L221,158.2321138861052L221.37142857142857,157.73418191338604L221.74285714285713,158.89380736479785L222.11428571428573,158.67116569793927L222.4857142857143,158.85021958775067L222.85714285714283,158.48562474901644L223.22857142857143,158.7394349840022L223.6,159.02335577332772L223.97142857142856,159.18113780778367L224.34285714285716,159.25097917083005L224.71428571428572,159.71508558599564L225.0857142857143,159.39489195957924L225.45714285714286,159.69779672416357L225.82857142857142,159.45231959306133L226.2,159.59088203996026L226.57142857142858,159.01954712294258L226.94285714285715,159.4160940776794L227.31428571428572,159.836172374843L227.68571428571428,159.84318246336903L228.05714285714285,159.55807414821064L228.42857142857142,159.90062653491847L228.8,159.64003783871885L229.17142857142858,159.80471987646217L229.54285714285714,159.14140749720033L229.9142857142857,159.78133149540875L230.28571428571428,159.9237250082392L230.65714285714284,160.17572705582L231.02857142857144,159.70638187841263L231.4,160.1655018307636L231.77142857142857,160.57732174253144L232.14285714285717,160.1320847342767L232.5142857142857,160.30346976756118L232.88571428571427,160.11126940888172L233.25714285714287,159.96749360402688L233.62857142857143,160.26859864930157L234,160.1383708006559L234.3714285714286,160.53018732792967L234.74285714285713,160.5024465949615L235.1142857142857,160.1199138397978L235.48571428571427,160.43886788650147L235.85714285714286,160.3687204267167L236.22857142857143,160.4932295713672L236.6,160.3480961315889L236.9714285714286,159.75413396584693L237.34285714285713,160.07906225377408L237.7142857142857,160.1608259477966L238.0857142857143,160.28325069569894L238.45714285714286,160.25408109618226L238.82857142857142,160.19488114016937L239.20000000000002,160.7418750154141L239.57142857142856,160.35740954203246L239.94285714285712,160.47349268281295L240.31428571428572,160.42828077490245L240.68571428571428,160.34460428759206L241.05714285714285,160.12461861391336" style="fill: none;" fill="none"></path></g></g></g></g></g></g><g transform="translate(70, 178)" clip-path="url(#clip_1)"><clipPath id="clip_1"><rect width="260" height="22"></rect></clipPath><g><g><line x1="0" y1="0" x2="0" y2="5" style="visibility: inherit;" fill="rgb(0, 0, 0)" stroke="rgb(204, 204, 204)" stroke-width="1px"></line><line x1="18.57142857142857" y1="0" x2="18.57142857142857" y2="5" style="visibility: inherit;" fill="rgb(0, 0, 0)" stroke="rgb(204, 204, 204)" stroke-width="1px"></line><line x1="37.14285714285714" y1="0" x2="37.14285714285714" y2="5" style="visibility: inherit;" fill="rgb(0, 0, 0)" stroke="rgb(204, 204, 204)" stroke-width="1px"></line><line x1="55.71428571428571" y1="0" x2="55.71428571428571" y2="5" style="visibility: inherit;" fill="rgb(0, 0, 0)" stroke="rgb(204, 204, 204)" stroke-width="1px"></line><line x1="74.28571428571428" y1="0" x2="74.28571428571428" y2="5" style="visibility: inherit;" fill="rgb(0, 0, 0)" stroke="rgb(204, 204, 204)" stroke-width="1px"></line><line x1="92.85714285714286" y1="0" x2="92.85714285714286" y2="5" style="visibility: inherit;" fill="rgb(0, 0, 0)" stroke="rgb(204, 204, 204)" stroke-width="1px"></line><line x1="111.42857142857142" y1="0" x2="111.42857142857142" y2="5" style="visibility: inherit;" fill="rgb(0, 0, 0)" stroke="rgb(204, 204, 204)" stroke-width="1px"></line><line x1="130" y1="0" x2="130" y2="5" style="visibility: inherit;" fill="rgb(0, 0, 0)" stroke="rgb(204, 204, 204)" stroke-width="1px"></line><line x1="148.57142857142856" y1="0" x2="148.57142857142856" y2="5" style="visibility: inherit;" fill="rgb(0, 0, 0)" stroke="rgb(204, 204, 204)" stroke-width="1px"></line><line x1="167.14285714285717" y1="0" x2="167.14285714285717" y2="5" style="visibility: inherit;" fill="rgb(0, 0, 0)" stroke="rgb(204, 204, 204)" stroke-width="1px"></line><line x1="185.71428571428572" y1="0" x2="185.71428571428572" y2="5" style="visibility: inherit;" fill="rgb(0, 0, 0)" stroke="rgb(204, 204, 204)" stroke-width="1px"></line><line x1="204.28571428571428" y1="0" x2="204.28571428571428" y2="5" style="visibility: inherit;" fill="rgb(0, 0, 0)" stroke="rgb(204, 204, 204)" stroke-width="1px"></line><line x1="222.85714285714283" y1="0" x2="222.85714285714283" y2="5" style="visibility: inherit;" fill="rgb(0, 0, 0)" stroke="rgb(204, 204, 204)" stroke-width="1px"></line><line x1="241.42857142857144" y1="0" x2="241.42857142857144" y2="5" style="visibility: inherit;" fill="rgb(0, 0, 0)" stroke="rgb(204, 204, 204)" stroke-width="1px"></line><line x1="260" y1="0" x2="260" y2="5" style="visibility: inherit;" fill="rgb(0, 0, 0)" stroke="rgb(204, 204, 204)" stroke-width="1px"></line></g><g transform="translate(0, 8)"><text x="0" y="0" dx="0em" dy="0.95em" style="text-anchor: middle; visibility: hidden; font-family: &quot;Helvetica Neue&quot;, sans-serif; font-size: 12px; font-weight: 200;" fill="rgb(50, 49, 63)" stroke="none" stroke-width="1px">-50</text><text x="18.57142857142857" y="0" dx="0em" dy="0.95em" style="text-anchor: middle; visibility: inherit; font-family: &quot;Helvetica Neue&quot;, sans-serif; font-size: 12px; font-weight: 200;" fill="rgb(50, 49, 63)" stroke="none" stroke-width="1px">0</text><text x="37.14285714285714" y="0" dx="0em" dy="0.95em" style="text-anchor: middle; visibility: hidden; font-family: &quot;Helvetica Neue&quot;, sans-serif; font-size: 12px; font-weight: 200;" fill="rgb(50, 49, 63)" stroke="none" stroke-width="1px">50</text><text x="55.71428571428571" y="0" dx="0em" dy="0.95em" style="text-anchor: middle; visibility: inherit; font-family: &quot;Helvetica Neue&quot;, sans-serif; font-size: 12px; font-weight: 200;" fill="rgb(50, 49, 63)" stroke="none" stroke-width="1px">100</text><text x="74.28571428571428" y="0" dx="0em" dy="0.95em" style="text-anchor: middle; visibility: hidden; font-family: &quot;Helvetica Neue&quot;, sans-serif; font-size: 12px; font-weight: 200;" fill="rgb(50, 49, 63)" stroke="none" stroke-width="1px">150</text><text x="92.85714285714286" y="0" dx="0em" dy="0.95em" style="text-anchor: middle; visibility: inherit; font-family: &quot;Helvetica Neue&quot;, sans-serif; font-size: 12px; font-weight: 200;" fill="rgb(50, 49, 63)" stroke="none" stroke-width="1px">200</text><text x="111.42857142857142" y="0" dx="0em" dy="0.95em" style="text-anchor: middle; visibility: hidden; font-family: &quot;Helvetica Neue&quot;, sans-serif; font-size: 12px; font-weight: 200;" fill="rgb(50, 49, 63)" stroke="none" stroke-width="1px">250</text><text x="130" y="0" dx="0em" dy="0.95em" style="text-anchor: middle; visibility: inherit; font-family: &quot;Helvetica Neue&quot;, sans-serif; font-size: 12px; font-weight: 200;" fill="rgb(50, 49, 63)" stroke="none" stroke-width="1px">300</text><text x="148.57142857142856" y="0" dx="0em" dy="0.95em" style="text-anchor: middle; visibility: hidden; font-family: &quot;Helvetica Neue&quot;, sans-serif; font-size: 12px; font-weight: 200;" fill="rgb(50, 49, 63)" stroke="none" stroke-width="1px">350</text><text x="167.14285714285717" y="0" dx="0em" dy="0.95em" style="text-anchor: middle; visibility: inherit; font-family: &quot;Helvetica Neue&quot;, sans-serif; font-size: 12px; font-weight: 200;" fill="rgb(50, 49, 63)" stroke="none" stroke-width="1px">400</text><text x="185.71428571428572" y="0" dx="0em" dy="0.95em" style="text-anchor: middle; visibility: hidden; font-family: &quot;Helvetica Neue&quot;, sans-serif; font-size: 12px; font-weight: 200;" fill="rgb(50, 49, 63)" stroke="none" stroke-width="1px">450</text><text x="204.28571428571428" y="0" dx="0em" dy="0.95em" style="text-anchor: middle; visibility: inherit; font-family: &quot;Helvetica Neue&quot;, sans-serif; font-size: 12px; font-weight: 200;" fill="rgb(50, 49, 63)" stroke="none" stroke-width="1px">500</text><text x="222.85714285714283" y="0" dx="0em" dy="0.95em" style="text-anchor: middle; visibility: hidden; font-family: &quot;Helvetica Neue&quot;, sans-serif; font-size: 12px; font-weight: 200;" fill="rgb(50, 49, 63)" stroke="none" stroke-width="1px">550</text><text x="241.42857142857144" y="0" dx="0em" dy="0.95em" style="text-anchor: middle; visibility: inherit; font-family: &quot;Helvetica Neue&quot;, sans-serif; font-size: 12px; font-weight: 200;" fill="rgb(50, 49, 63)" stroke="none" stroke-width="1px">600</text><text x="260" y="0" dx="0em" dy="0.95em" style="text-anchor: middle; visibility: hidden; font-family: &quot;Helvetica Neue&quot;, sans-serif; font-size: 12px; font-weight: 200;" fill="rgb(50, 49, 63)" stroke="none" stroke-width="1px">650</text></g><line x1="0" y1="0" x2="260" y2="0" fill="rgb(0, 0, 0)" stroke="rgb(204, 204, 204)" stroke-width="1px"></line></g></g></g></g></svg>